<?xml version="1.0" encoding="UTF-8" standalone="no"?>
<!-- Created with Inkscape (http://www.inkscape.org/) -->

<svg
   width="24mm"
   height="24mm"
   viewBox="0 0 24 24"
   version="1.1"
   id="svg1"
   xml:space="preserve"
   inkscape:version="1.3.2 (091e20ef0f, 2023-11-25)"
   sodipodi:docname="logo.svg"
   xmlns:inkscape="http://www.inkscape.org/namespaces/inkscape"
   xmlns:sodipodi="http://sodipodi.sourceforge.net/DTD/sodipodi-0.dtd"
   xmlns="http://www.w3.org/2000/svg"
   xmlns:svg="http://www.w3.org/2000/svg"><sodipodi:namedview
     id="namedview1"
     pagecolor="#ffffff"
     bordercolor="#000000"
     borderopacity="0.25"
     inkscape:showpageshadow="2"
     inkscape:pageopacity="0.0"
     inkscape:pagecheckerboard="0"
     inkscape:deskcolor="#d1d1d1"
     inkscape:document-units="mm"
     inkscape:zoom="3.6609362"
     inkscape:cx="44.660707"
     inkscape:cy="60.230495"
     inkscape:window-width="1366"
     inkscape:window-height="695"
     inkscape:window-x="0"
     inkscape:window-y="0"
     inkscape:window-maximized="1"
     inkscape:current-layer="layer1" /><defs
     id="defs1" /><g
     inkscape:label="Layer 1"
     inkscape:groupmode="layer"
     id="layer1"><g
       id="g1"
       transform="matrix(0.12973526,0,0,0.12973526,-0.68049957,-6.951785)"><path
         style="fill:#000000"
         d="M 89.752522,230.70908 C 40.040302,225.35141 2.8879016,178.15116 12.333192,132.35174 26.817102,62.120502 111.80124,36.774325 160.83724,88.061005 c 11.19657,11.710478 21.96985,32.744115 19.63431,38.333835 -2.43418,5.82582 -7.54696,3.30038 -10.20902,-5.04269 -11.47562,-35.965348 -52.48587,-58.446887 -89.477698,-49.05107 -33.39677,8.482684 -56.52021,35.02645 -60.0551,68.93823 -0.57112,5.47894 -0.83882,5.16505 4.40496,5.16505 h 4.37237 l 0.19225,-4.14514 c 1.18506,-25.55128 21.27123,-51.223088 46.43843,-59.35221 5.99561,-1.93661 7.41911,-1.831558 9.10627,0.672027 2.38491,3.538964 0.43415,6.065345 -6.41609,8.309317 -21.88363,7.168549 -39.69901,30.797916 -39.69901,52.654666 v 1.86134 h 9.34861 9.34861 v -9.41362 c 0,-12.16038 0.73062,-13.96374 5.44214,-13.43268 3.94584,0.44475 4.43111,1.95231 4.43367,13.77383 l 0.002,9.09558 3.93101,-0.0998 3.93101,-0.0998 0.0627,-6.52639 c 0.16162,-16.82374 11.80983,-28.12354 26.918168,-26.11299 13.64268,1.8155 21.24879,11.9487 21.24879,28.3086 v 4.50717 h 4.93888 4.93889 v -9.71891 c 0,-11.71207 0.50987,-13.20577 4.50925,-13.21033 4.37036,-0.005 4.79862,1.1094 5.01575,13.05146 l 0.17639,9.70139 18.90142,0.17639 18.90142,0.17639 1.26361,0.96407 c 2.1988,1.67757 2.55864,3.27469 1.85946,8.25303 -6.44249,45.87199 -49.25495,79.79264 -94.548138,74.91123 z m 4.7625,-27.47915 v -18.31609 l -1.85209,-0.60687 c -10.45466,-3.42564 -16.84513,-12.24045 -16.84513,-23.2356 0,-2.00349 -0.0992,-4.1388 -0.22049,-4.74514 l -0.22049,-1.10243 h -3.80663 -3.80664 l -0.11801,7.73601 c -0.14381,9.42647 -1.09231,11.35285 -5.33493,10.83506 -3.80115,-0.46391 -4.46668,-2.16274 -4.47673,-11.42732 l -0.008,-7.14375 h -9.34861 -9.34861 v 2.00529 c 0,8.06021 -9.21981,8.51574 -9.79448,0.48393 l -0.1781,-2.48922 h -3.9508 c -4.7212,0 -4.42049,-0.22657 -3.8717,2.91716 5.7658,33.02878 39.02027,62.49532 71.50544,63.36043 l 1.6757,0.0446 z m 16.756948,17.24093 c 31.09982,-5.3297 61.60165,-35.87904 63.38443,-63.48317 l 0.10253,-1.5875 h -4.5796 -4.57959 l -0.19435,2.49274 c -0.6288,8.06521 -9.85982,7.44371 -9.85982,-0.66384 v -2.00529 h -6.17361 -6.17361 l -0.001,7.67292 c -0.002,9.37247 -0.72484,11.02835 -4.81449,11.02298 -3.81403,-0.005 -4.70627,-2.12752 -4.70787,-11.19937 l -0.001,-7.49653 h -4.88707 -4.88707 l -0.19977,5.02709 c -0.47673,11.997 -6.43728,20.41683 -16.92539,23.90867 l -2.38125,0.79279 v 18.301 18.30101 l 1.49931,-0.20924 c 0.82461,-0.11508 3.24555,-0.50849 5.37986,-0.87426 z m -7.88647,-45.12991 c 4.22234,-1.31216 7.42783,-4.15806 9.37812,-8.32609 l 0.97779,-2.08967 v -15.69861 -15.69861 l -0.99537,-2.02765 c -5.58947,-11.38622 -21.614248,-11.21278 -26.354068,0.28523 -1.02062,2.47586 -1.5691,28.50477 -0.68717,32.61047 1.75735,8.18107 10.05193,13.31568 17.680698,10.94493 z m -5.225258,-10.61941 c -4.54918,-1.34582 -5.75842,-27.2997 -1.416,-30.39177 2.22055,-1.58118 5.915338,-0.83712 7.086168,1.42701 0.91067,1.76105 0.90611,24.98692 -0.005,26.54733 -1.16801,1.99991 -3.587,3.03217 -5.664948,2.41743 z m -79.04416,52.44098 c -2.10857,-1.77424 -2.26591,-4.68625 -0.34985,-6.47458 3.03903,-2.83644 8.10712,0.75459 6.48262,4.5933 -1.11987,2.64629 -4.12724,3.56882 -6.13277,1.88128 z M 170.85613,216.8188 c -3.00756,-3.00756 -0.0923,-8.23725 3.86396,-6.93157 4.66481,1.53953 3.54854,8.13101 -1.377,8.13101 -0.99387,0 -1.56108,-0.27356 -2.48696,-1.19944 z m -13.08857,-76.0446 c -1.54294,-0.94079 -2.05749,-2.08768 -3.10003,-6.90964 -4.43944,-20.5333 -17.62043,-35.155597 -38.45668,-42.661799 -6.97009,-2.510958 -8.62332,-5.046642 -5.61854,-8.617611 4.35133,-5.171267 27.24948,6.432455 38.57054,19.54577 8.56545,9.92145 15.55495,25.42344 15.55495,34.49927 0,3.51585 -4.03488,5.9216 -6.95024,4.14401 z m -32.03171,-23.25687 c -0.58208,-0.3642 -1.69333,-1.32975 -2.46944,-2.14567 -1.69736,-1.78442 -4.10084,-3.41473 -7.347,-4.98355 -5.61957,-2.71585 -5.90869,-8.66096 -0.47081,-9.68111 3.3416,-0.62689 13.42653,5.55157 16.08628,9.85513 2.57242,4.16226 -1.82788,9.43985 -5.79903,6.9552 z M 85.802942,106.20322 c -4.5775,-2.79108 -2.72882,-8.257584 3.09384,-9.148447 11.749888,-1.797726 14.581168,-1.189469 15.030098,3.228987 0.32125,3.16183 -2.01913,4.92668 -7.118808,5.3682 -1.55222,0.13439 -4.01284,0.46863 -5.46805,0.74276 -3.47203,0.65404 -4.19114,0.62917 -5.53708,-0.1915 z M 173.80626,84.821577 c -1.88243,-1.021393 -2.72122,-4.65808 -1.48233,-6.426841 1.64979,-2.355406 5.40395,-2.358831 6.92511,-0.0063 2.43986,3.773316 -1.58258,8.527684 -5.44278,6.433158 z"
         id="path15" /></g></g></svg>
