<?xml version="1.0" encoding="UTF-8" standalone="no"?>
<!-- Created with Inkscape (http://www.inkscape.org/) -->

<svg
   width="200mm"
   height="200mm"
   viewBox="0 0 200 200"
   version="1.1"
   id="svg1"
   xml:space="preserve"
   inkscape:version="1.3.2 (091e20ef0f, 2023-11-25)"
   sodipodi:docname="smol-logo.svg"
   xmlns:inkscape="http://www.inkscape.org/namespaces/inkscape"
   xmlns:sodipodi="http://sodipodi.sourceforge.net/DTD/sodipodi-0.dtd"
   xmlns="http://www.w3.org/2000/svg"
   xmlns:svg="http://www.w3.org/2000/svg"><sodipodi:namedview
     id="namedview1"
     pagecolor="#ffffff"
     bordercolor="#000000"
     borderopacity="0.25"
     inkscape:showpageshadow="2"
     inkscape:pageopacity="0.0"
     inkscape:pagecheckerboard="0"
     inkscape:deskcolor="#d1d1d1"
     inkscape:document-units="mm"
     inkscape:zoom="0.5"
     inkscape:cx="397"
     inkscape:cy="562"
     inkscape:window-width="1280"
     inkscape:window-height="952"
     inkscape:window-x="0"
     inkscape:window-y="0"
     inkscape:window-maximized="1"
     inkscape:current-layer="layer1" /><defs
     id="defs1" /><g
     inkscape:label="Layer 1"
     inkscape:groupmode="layer"
     id="layer1"><path
       style="fill:#ffffff"
       d="m 98.783565,184.20746 c -1.80121,-0.80732 -2.92933,-2.64953 -2.62287,-4.28312 0.16312,-0.86951 0.96652,-1.87477 2.51395,-3.14561 l 0.64434,-0.52917 0.0833,-6.48229 c 0.0465,-3.61589 0.19454,-6.59666 0.33488,-6.74093 0.16369,-0.16827 0.410835,-0.15813 0.707335,0.029 0.40923,0.25828 0.46048,0.95976 0.50216,6.87322 l 0.0464,6.58558 1.0096,0.74536 c 1.55004,1.14437 2.0291,2.07355 1.87828,3.64316 -0.14379,1.49642 -1.04806,2.6918 -2.5092,3.31698 -1.04716,0.44805 -1.566805,0.4456 -2.588185,-0.0122 z m 2.190085,-2.41665 c 1.16476,-0.81582 0.47945,-3.0277 -0.93807,-3.0277 -0.541605,0 -1.648895,1.23566 -1.648895,1.84005 0,0.66596 0.89219,1.59953 1.52863,1.59953 0.258665,0 0.734915,-0.18535 1.058335,-0.41188 z m 9.65002,-0.83977 c -0.2369,-0.0826 -0.33073,-0.92173 -0.33073,-2.95761 0,-2.68964 -0.0355,-2.87562 -0.66146,-3.46366 -0.49773,-0.46759 -0.66045,-0.88832 -0.6574,-1.69976 0.005,-1.43334 0.2328,-1.73106 2.03638,-2.66586 l 1.53144,-0.79375 0.0723,-4.53811 c 0.0584,-3.66934 0.14562,-4.56625 0.45537,-4.68511 0.21069,-0.0809 0.56512,0.035 0.78761,0.25752 0.33121,0.33122 0.40453,1.21854 0.40453,4.89558 0,4.39494 -0.0137,4.50471 -0.63867,5.12972 -0.35127,0.35127 -0.94658,0.71595 -1.32292,0.8104 l -0.68424,0.17174 v 4.70551 c 0,4.77048 -0.0784,5.15216 -0.99219,4.83339 z m -24.220267,-0.2365 c -0.103153,-0.10315 -0.18755,-2.76632 -0.18755,-5.91816 v -5.73062 l -0.661458,-0.6214 c -0.846926,-0.79565 -0.899817,-2.18809 -0.108137,-2.84686 0.304327,-0.25324 0.658568,-0.72833 0.787202,-1.05575 0.220964,-0.56244 1.040726,-0.85386 1.040726,-0.36997 0,0.12394 0.357188,0.59911 0.79375,1.05593 0.975258,1.02051 1.10185,2.59122 0.269548,3.34444 -0.487976,0.44162 -0.529117,0.87872 -0.595313,6.32487 -0.06881,5.66119 -0.08858,5.85296 -0.611164,5.92777 -0.29703,0.0425 -0.624452,-0.007 -0.727604,-0.11025 z m 0.6062,-13.70978 c 0,-0.0642 -0.119063,-0.19026 -0.264583,-0.2802 -0.145521,-0.0899 -0.264584,-0.0374 -0.264584,0.11668 0,0.15411 0.119063,0.2802 0.264584,0.2802 0.14552,0 0.264583,-0.0525 0.264583,-0.11668 z m 27.525977,12.83407 c -0.43139,-0.80606 -0.34654,-4.84728 0.11457,-5.45693 0.37347,-0.49377 0.38879,-0.48675 0.39688,0.18192 0.006,0.51552 0.20885,0.77853 0.78299,1.01634 0.60904,0.25228 0.8117,0.54062 0.94832,1.34927 0.18658,1.10433 -0.0305,2.55368 -0.46293,3.09045 -0.4056,0.50348 -1.4715,0.39506 -1.77983,-0.18105 z m -32.28727,-0.41281 c -0.471153,-0.56771 -0.266743,-12.41145 0.222539,-12.89416 0.276414,-0.2727 0.41288,-0.23913 0.720107,0.17713 0.30338,0.41105 0.379064,1.73926 0.379064,6.65242 0,5.35374 -0.05352,6.15937 -0.418515,6.29943 -0.55282,0.21214 -0.526594,0.21895 -0.903195,-0.23482 z m 37.48144,-0.0455 c -0.097,-0.097 -0.17639,-1.05349 -0.17639,-2.12549 0,-1.87476 -0.0353,-1.98441 -0.92604,-2.87514 l -0.92605,-0.92604 v -5.30042 -5.30042 l 0.72761,0.0837 0.7276,0.0837 0.0721,4.98429 0.0721,4.98429 0.89016,0.83953 c 0.87886,0.82887 0.88948,0.86655 0.83631,2.96618 -0.0296,1.16966 -0.14223,2.26965 -0.25025,2.44441 -0.21425,0.34666 -0.76715,0.42131 -1.04709,0.14137 z m -50.800008,-4.23334 c -0.09701,-0.097 -0.176389,-1.35815 -0.176389,-2.80253 0,-2.22552 -0.08073,-2.72878 -0.529167,-3.29888 -0.291041,-0.37 -0.529166,-0.96349 -0.529166,-1.31886 0,-0.75869 1.329131,-2.19351 2.030168,-2.19161 0.672068,0.002 1.897641,1.08004 1.953346,1.71848 0.08288,0.94988 -0.0043,1.16165 -0.82259,1.99877 -0.789673,0.80783 -0.806211,0.87789 -0.735967,3.11798 0.03952,1.26037 -0.0207,2.44041 -0.133831,2.62231 -0.222511,0.35778 -0.7726,0.43815 -1.056404,0.15434 z m 60.838378,-0.24212 c -0.0883,-0.23019 -0.1606,-1.87861 -0.1606,-3.66316 0,-2.84029 -0.062,-3.30078 -0.49772,-3.69508 -0.46876,-0.42423 -0.52405,-0.42409 -0.95045,0.002 -0.30869,0.30869 -0.40498,0.69148 -0.30264,1.20317 0.11146,0.55733 0.048,0.75044 -0.24672,0.75044 -0.55864,0 -0.8985,-1.06646 -0.68013,-2.13418 0.19738,-0.96507 1.14344,-1.66538 1.92222,-1.42291 0.23935,0.0745 0.86183,-0.068 1.38328,-0.31662 0.90261,-0.43042 0.97375,-0.42889 1.48304,0.032 0.73464,0.66484 0.68069,1.87232 -0.1265,2.83162 -0.54263,0.64488 -0.66146,1.06763 -0.66146,2.3533 0,1.22967 0.0871,1.5672 0.40442,1.5672 0.75421,0 8.24497,-3.99805 11.23442,-5.99616 0.94434,-0.63118 1.85338,-1.14759 2.02009,-1.14759 0.16672,0 0.5081,0.31283 0.75863,0.69518 0.44661,0.68162 0.44075,0.70738 -0.3003,1.32066 -1.2196,1.00929 -5.8007,3.80354 -7.992,4.87472 -7.11084,3.47601 -7.0202,3.44186 -7.28758,2.74509 z m -36.133627,-1.21888 c -0.684841,-0.73509 -0.687403,-1.81334 -0.0069,-2.92028 0.474413,-0.77174 0.513847,-1.14427 0.361302,-3.41331 -0.09418,-1.40086 -0.08891,-2.98583 0.0117,-3.52216 0.151945,-0.80993 0.281236,-0.96114 0.763178,-0.89256 0.559429,0.0796 0.582889,0.20787 0.653979,3.57554 0.0734,3.4794 0.0768,3.49603 0.8599,4.27913 0.92589,0.9259 1.00121,1.80502 0.23778,2.77556 -0.70842,0.90061 -2.098774,0.9576 -2.880902,0.11808 z M 63.329395,172.183 c -2.376984,-1.13625 -6.173583,-3.38413 -7.709682,-4.56473 -1.261981,-0.96992 -1.338028,-1.09171 -1.058334,-1.6949 0.466686,-1.00645 1.004917,-0.85413 4.033368,1.14143 0.857806,0.56525 2.896471,1.73196 4.530367,2.5927 1.633895,0.86074 3.023898,1.70014 3.088894,1.86533 0.150858,0.38343 -0.565586,1.41951 -0.981387,1.41923 -0.17365,-1.1e-4 -1.030101,-0.34169 -1.903226,-0.75906 z m 8.724623,-6.13062 c -0.353452,-0.57189 0.169107,-1.56608 1.317968,-2.50749 1.262733,-1.03471 2.079844,-1.12083 2.207342,-0.23263 0.05778,0.40252 -0.298772,0.83417 -1.322916,1.60153 -1.872624,1.4031 -1.998653,1.46825 -2.202394,1.13859 z m 77.066522,-1.59797 c -0.25467,-0.14833 -0.64468,-0.62096 -0.86669,-1.05029 -0.36006,-0.69627 -0.36063,-0.86382 -0.005,-1.55099 0.5128,-0.99164 1.64065,-1.87544 2.39333,-1.87544 0.98351,0 1.98494,0.97974 1.98032,1.93743 -0.005,1.03353 -0.18324,1.32578 -1.32047,2.16479 -0.96526,0.71215 -1.45664,0.79652 -2.18121,0.3745 z m -98.755729,-0.2938 c -0.918196,-0.51866 -6.262059,-5.35114 -8.467582,-7.65728 -4.124783,-4.31295 -4.737673,-5.39378 -3.490733,-6.15591 0.399998,-0.24448 0.630899,-0.12057 1.428784,0.76673 4.167046,4.63402 6.124257,6.60399 9.106109,9.16547 l 3.430617,2.94697 -0.586697,0.62451 c -0.666942,0.70992 -0.699189,0.71695 -1.420498,0.30951 z m 4.765933,-2.77993 c -0.580195,-0.0657 -1.143918,-0.25945 -1.252719,-0.43051 -0.1088,-0.17106 -0.199642,-1.15147 -0.201871,-2.17868 -0.0065,-3.0107 -0.232793,-2.90768 6.20176,-2.82364 3.453838,0.0451 5.642756,-0.031 5.972966,-0.20775 0.597732,-0.31989 0.715107,-1.62212 0.185803,-2.06141 -0.194733,-0.16161 -2.164541,-0.31392 -4.696354,-0.36312 -4.921155,-0.0956 -5.813785,-0.34989 -7.087848,-2.0188 -0.644238,-0.8439 -0.721557,-1.18826 -0.805223,-3.58629 -0.117743,-3.37476 0.172168,-4.34189 1.706372,-5.69235 1.703974,-1.4999 2.837613,-1.69066 9.36639,-1.57616 4.414745,0.0774 5.573388,0.17649 6.227064,0.53243 1.071157,0.58327 1.578144,1.60797 1.578144,3.18967 0,2.02859 -0.08473,2.05529 -6.523552,2.05529 -5.225582,0 -5.510324,0.0261 -5.779573,0.52916 -0.201213,0.37597 -0.201213,0.68237 0,1.05834 0.262173,0.48987 0.553991,0.52916 3.930037,0.52916 5.307543,0 7.211846,0.696 8.268225,3.02191 0.558956,1.2307 0.675349,4.41209 0.221246,6.0473 -0.351217,1.26473 -1.604542,2.70195 -3.001749,3.4422 -1.013487,0.53695 -1.475998,0.57652 -7.168801,0.61336 -3.346979,0.0217 -6.560121,-0.0144 -7.140317,-0.0801 z m 63.186056,-0.0794 c -1.54846,-0.32361 -2.43101,-0.83999 -3.69561,-2.16229 -1.89813,-1.98473 -1.94772,-2.19107 -1.94119,-8.07787 0.005,-4.575 0.069,-5.37274 0.50484,-6.29699 0.66117,-1.40221 2.06205,-2.8534 3.48967,-3.61501 1.10642,-0.59025 1.40538,-0.61833 6.58301,-0.61833 4.97147,0 5.52531,0.0469 6.63878,0.56188 1.59717,0.73872 3.29416,2.5356 3.80187,4.02565 0.48301,1.41756 0.57913,9.8643 0.13062,11.47923 -0.43892,1.58041 -1.82302,3.15432 -3.55176,4.03883 -1.54161,0.78876 -1.60191,0.79698 -6.20635,0.84609 -2.55729,0.0273 -5.14653,-0.0543 -5.75388,-0.18119 z m 8.7684,-5.81424 c 0.60573,-0.50271 0.59688,-8.24493 -0.0101,-8.85193 -0.33498,-0.33498 -1.07867,-0.41577 -3.82715,-0.41577 -3.10193,0 -3.43621,0.0464 -3.68526,0.51177 -0.31534,0.58921 -0.37052,8.18699 -0.063,8.67086 0.38172,0.60059 6.87659,0.67342 7.58551,0.0851 z m -50.474365,5.64533 c -0.101511,-0.10151 -0.184565,-4.25477 -0.184565,-9.22946 0,-8.98424 0.0041,-9.05093 0.604984,-9.94393 0.956689,-1.42166 1.922427,-1.60716 7.868669,-1.51139 l 5.166361,0.0832 1.765401,0.86981 1.765402,0.8698 1.534904,-0.86716 c 1.418534,-0.80143 1.748084,-0.87452 4.346874,-0.96412 3.545225,-0.12223 5.214375,0.31468 6.912375,1.80931 2.29035,2.01605 2.33257,2.22493 2.25212,11.14043 l -0.0702,7.77943 -2.7395,0.0757 c -1.79287,0.0495 -2.86712,-0.0302 -3.10885,-0.23083 -0.29801,-0.24733 -0.36936,-1.58035 -0.36936,-6.90076 v -6.59421 l -0.64943,-0.64943 c -0.56564,-0.56564 -0.88805,-0.64943 -2.498795,-0.64943 -1.57301,0 -1.96028,0.0953 -2.59171,0.63811 l -0.74236,0.63811 -0.13229,6.83637 -0.13229,6.83636 -2.513545,0.0776 c -1.382448,0.0427 -2.781433,0.0106 -3.108855,-0.0712 l -0.595312,-0.14876 v -6.62989 -6.6299 l -0.773398,-0.7734 c -0.699569,-0.69957 -0.941171,-0.77339 -2.530935,-0.77339 -1.879486,0 -2.582318,0.23476 -2.948393,0.98483 -0.126261,0.25871 -0.289097,3.50647 -0.361857,7.21725 l -0.132292,6.74687 -2.924289,0.0743 c -1.608359,0.0409 -3.007343,-0.009 -3.108854,-0.11025 z m 63.712905,-0.2437 c -1.13843,-0.60064 -1.70788,-1.17305 -2.2777,-2.28952 -0.47264,-0.92605 -0.50102,-1.76155 -0.50102,-14.75052 v -13.76888 h 3.17246 3.17246 l 0.0687,12.76615 0.0687,12.76614 1.13342,0.25112 1.13343,0.25112 -0.0751,2.52701 -0.0751,2.527 -2.51354,0.0694 c -1.88714,0.0521 -2.7112,-0.0349 -3.3067,-0.34905 z m 12.57643,-0.89361 c -0.15064,-0.28147 -0.2739,-0.64169 -0.2739,-0.80048 0,-0.15878 1.71132,-2.01208 3.80293,-4.11843 3.27941,-3.30253 3.9168,-3.82973 4.6302,-3.82973 1.17295,0 1.06987,0.54645 -0.46704,2.47602 -1.70896,2.14557 -6.50642,6.7844 -7.01641,6.7844 -0.22104,0 -0.52514,-0.2303 -0.67578,-0.51178 z M 33.972764,148.69485 c -0.515989,-0.67577 -0.938161,-1.37781 -0.938161,-1.56009 0,-0.42232 1.753444,-1.97374 2.230756,-1.97374 0.42748,0 1.91652,1.63831 2.346238,2.58144 0.273517,0.6003 0.215221,0.7372 -0.605829,1.42264 -1.298251,1.08383 -1.91998,0.98743 -3.033004,-0.47025 z m 128.750806,0.34713 c -0.62381,-0.64361 -0.8033,-1.01853 -0.66501,-1.38906 0.31788,-0.85175 1.69838,-2.43493 2.24869,-2.57884 0.6674,-0.17453 2.34194,1.26096 2.34194,2.00761 0,0.51308 -1.1018,2.21787 -1.7058,2.63934 -0.59281,0.41366 -1.40006,0.16672 -2.21982,-0.67905 z m -7.57241,-5.31294 c -1.15793,-1.23335 -2.18845,-2.4575 -2.29004,-2.72034 -0.10159,-0.26284 -0.43412,-0.68508 -0.73895,-0.93832 -0.53048,-0.4407 -0.55423,-0.69931 -0.55423,-6.03511 v -5.57467 l -1.34749,-1.42477 c -1.50748,-1.59395 -1.81141,-2.46354 -1.8212,-5.21074 -0.01,-2.67094 -0.71604,-7.53576 -1.47459,-10.15338 -0.88632,-3.05848 -2.81086,-6.76222 -4.08213,-7.85598 -0.76856,-0.66123 -1.2485,-1.48724 -2.11141,-3.63387 -0.61422,-1.527974 -1.20926,-2.897194 -1.32231,-3.042714 -0.11305,-0.14552 -0.54418,-1.03849 -0.95805,-1.98438 -0.75262,-1.72005 -1.91731,-3.77633 -1.57356,-2.77812 0.33293,0.96676 1.9237,6.57998 2.53485,8.944494 0.71671,2.77297 0.84046,2.55483 -2.66078,4.69044 -3.04174,1.85535 -4.7199,2.68395 -5.23493,2.58476 -0.68969,-0.13282 0.80159,-1.60916 3.38335,-3.34948 l 2.24846,-1.51563 -0.0824,-1.57625 c -0.10095,-1.93061 -1.66973,-9.909714 -2.43231,-12.371194 -0.4012,-1.29499 -0.90541,-2.1971 -1.79945,-3.2195 -0.68314,-0.78122 -1.3016,-1.42811 -1.37436,-1.43753 -0.0728,-0.009 -0.42752,0.66428 -0.78834,1.49711 -1.4412,3.32644 -4.32527,7.21378 -9.27366,12.49965 -1.56664,1.673494 -3.58449,3.896824 -4.48409,4.940724 -2.36631,2.74586 -3.1363,2.87677 -1.95794,0.33288 0.81641,-1.76252 1.82,-3.10182 5.6369,-7.522564 3.24335,-3.75644 6.41692,-8.34778 7.5103,-10.86545 2.84615,-6.5537 1.87822,-12.89713 -2.69764,-17.67917 -4.27193,-4.4644 -10.39933,-8.08982 -17.74934,-10.50181 -4.89394,-1.606 -6.73517,-1.82937 -9.693565,-1.17601 -2.930393,0.64717 -7.686618,2.30848 -10.17553,3.55422 -3.70377,1.8538 -9.343304,6.05069 -11.471466,8.53697 -2.762206,3.22702 -4.161175,7.85418 -3.590711,11.87648 0.785243,5.53668 3.292218,9.63052 10.67492,17.4319 1.579676,1.66926 3.343895,3.729714 3.920487,4.578784 1.075531,1.58379 1.715087,3.02249 1.457927,3.27965 -0.07975,0.0798 -2.921254,-2.63811 -6.314445,-6.039704 -6.258587,-6.27407 -8.441023,-8.91561 -10.024212,-12.13293 -0.463032,-0.94096 -0.888926,-1.76292 -0.946432,-1.82657 -0.269677,-0.29849 -1.716499,1.87329 -2.204945,3.30977 -1.06049,3.11883 -2.856139,13.038084 -2.563338,14.160004 0.107539,0.41206 0.849555,1.08003 2.097514,1.88821 2.343966,1.51796 4.003664,2.998 3.775645,3.36694 -0.111115,0.17979 -0.501286,0.13509 -1.146471,-0.13134 -1.316505,-0.54366 -5.524807,-3.09588 -6.633437,-4.02301 l -0.892904,-0.74672 1.234692,-4.885314 c 0.679081,-2.68692 1.42044,-5.45857 1.647465,-6.15922 0.227025,-0.70066 0.356171,-1.33052 0.286992,-1.3997 -0.153107,-0.1531 -1.919789,3.84235 -3.670402,8.30083 -1.088667,2.772634 -1.476605,3.460754 -2.473142,4.386874 -0.783571,0.72819 -1.575027,1.90099 -2.348223,3.47966 -1.962623,4.00716 -2.871697,7.87087 -3.342221,14.20499 -0.291247,3.92073 -0.377008,4.33298 -0.946894,4.55166 -0.702609,0.26962 -1.170168,-0.13545 -1.170168,-1.01378 0,-0.4695 -0.0782,-0.93184 -0.173774,-1.02741 -0.09557,-0.0956 -1.226669,0.8608 -2.513541,2.12529 l -2.339768,2.29906 v 5.61418 c 0,3.0878 -0.07227,5.80252 -0.160599,6.0327 -0.08833,0.23018 -0.445517,0.41852 -0.79375,0.41852 h -0.633151 v -6.38491 -6.3849 l 0.875014,-0.825 c 0.481258,-0.45374 1.886603,-1.74573 3.122989,-2.87108 l 2.247974,-2.0461 0.336708,-3.11328 c 0.748503,-6.92083 2.618998,-12.43734 5.855261,-17.26848 0.971312,-1.45 3.982314,-6.971104 6.589362,-12.082544 1.276326,-2.50239 1.511084,-2.79456 3.369053,-4.19298 1.808329,-1.36106 1.980808,-1.56951 1.824472,-2.20497 -0.09496,-0.38599 -0.240227,-2.02976 -0.322811,-3.65281 -0.134396,-2.64133 -0.07942,-3.19664 0.52388,-5.29167 0.370718,-1.28736 1.261579,-3.65035 1.979691,-5.25108 0.718112,-1.60073 3.055718,-6.83948 5.19468,-11.64166 4.284692,-9.619573 4.965831,-10.96059 7.506882,-14.779444 4.124116,-6.197986 10.483487,-10.83497 14.871852,-10.843922 2.25115,-0.0046 5.0131,1.253371 8.37992,3.816728 5.49648,4.18479 8.60974,8.681687 14.27276,20.616008 1.55367,3.27422 3.88054,8.14738 5.17082,10.82924 3.56808,7.4163 4.13642,9.74378 3.59023,14.70305 l -0.20398,1.85209 1.13002,0.63648 c 2.08859,1.1764 4.16242,2.93314 4.34111,3.67735 0.2862,1.19196 5.40448,10.23945 7.94193,14.038794 1.275,1.90907 3.28291,5.90695 3.8964,7.75801 0.99246,2.99451 1.52268,6.47485 1.6653,10.93103 l 0.14396,4.49792 1.00647,1.05833 1.00648,1.05834 0.15544,6.08541 c 0.0855,3.34698 0.1689,6.33863 0.18535,6.64811 0.0223,0.41968 0.15956,0.52879 0.54003,0.4293 0.37535,-0.0982 0.87417,0.27741 1.88821,1.42168 0.75795,0.85529 1.71483,1.87945 2.1264,2.27589 0.83069,0.80016 0.8509,1.62058 0.0427,1.73494 -0.36869,0.0522 -1.15742,-0.59754 -2.63179,-2.16794 z M 81.09566,60.986576 c 3.814927,-2.74008 9.288073,-5.03209 15.042065,-6.29924 1.45521,-0.32046 2.91373,-0.69024 3.24115,-0.82173 l 0.59531,-0.23908 v -9.945374 -9.945377 l -0.59531,0.178448 c -1.67263,0.50138 -7.185908,4.52075 -9.477008,6.909065 -2.815955,2.93544 -4.781621,6.174841 -7.521288,12.395018 -0.833228,1.89177 -2.107917,4.74927 -2.832644,6.35 -1.835756,4.0547 -1.745456,3.77944 -1.084958,3.3073 0.305358,-0.21829 1.490066,-1.06835 2.632683,-1.88903 z m 40.40556,-3.2042 c -2.63646,-5.64194 -3.80358,-7.8928 -6.00215,-11.575525 -1.90434,-3.189868 -5.77654,-7.01254 -9.70405,-9.57991 -1.67349,-1.093943 -3.25106,-2.061155 -3.50572,-2.14936 -0.43069,-0.149171 -0.46067,0.176312 -0.42925,4.65997 0.0186,2.651188 0.10787,7.021612 0.19844,9.712052 l 0.16466,4.891713 3.5721,0.94438 c 1.96466,0.51941 4.5245,1.28033 5.68854,1.69093 3.37513,1.19054 8.30887,3.71213 10.31853,5.27371 1.01864,0.79153 1.93095,1.45055 2.02734,1.46449 0.0964,0.014 -0.9514,-2.38566 -2.32844,-5.33245 z M 41.621535,143.45326 c -0.792348,-0.79235 -0.811539,-1.18979 -0.101062,-2.09301 0.67092,-0.85294 1.865286,-0.92932 2.62663,-0.16798 0.676071,0.67607 0.670339,1.33667 -0.0192,2.21328 -0.693952,0.88222 -1.653588,0.90048 -2.506364,0.0477 z m -1.194014,-5.29616 c -0.796692,-0.43332 -1.361493,-1.5272 -1.129323,-2.18721 0.09019,-0.25639 0.436901,-0.76382 0.770474,-1.12762 0.56379,-0.61488 0.618459,-0.96887 0.776358,-5.02708 l 0.169861,-4.36563 4.506053,-4.36562 c 4.806806,-4.65701 6.440096,-5.91304 6.849046,-5.26707 0.359048,0.56715 0.303539,0.7239 -0.483825,1.36621 -1.31575,1.07336 -8.653099,8.25188 -9.125482,8.92794 -0.387378,0.55441 -0.460941,1.26094 -0.454544,4.36563 0.0056,2.71442 0.108665,3.8809 0.385756,4.36562 0.207968,0.3638 0.382342,1.09984 0.387499,1.63563 0.0075,0.77901 -0.144572,1.08379 -0.759072,1.52136 -0.895872,0.63791 -0.994962,0.64618 -1.892801,0.15784 z m 116.575059,-0.12802 c -0.3297,-0.36432 -0.42646,-0.77524 -0.3271,-1.38907 0.0776,-0.47943 0.16954,-1.05029 0.2043,-1.26857 0.0348,-0.21828 0.0444,-2.45943 0.0215,-4.98032 l -0.0417,-4.58344 -2.05052,-2.19112 c -2.89385,-3.09226 -3.24115,-3.55193 -3.24115,-4.28985 v -0.65394 l 0.82387,0.47798 c 0.45314,0.26289 1.25397,1.01376 1.77964,1.66861 0.52567,0.65484 1.37532,1.60734 1.88811,2.11666 l 0.93234,0.92604 0.0813,-1.5866 0.0813,-1.58661 -1.298,-1.19152 c -0.7139,-0.65533 -1.94111,-1.76387 -2.72713,-2.46341 l -1.42913,-1.27188 0.91229,0.15127 c 1.03694,0.17194 2.98294,1.44514 4.87257,3.18796 1.17699,1.08553 1.27119,1.26051 1.10245,2.04783 -0.10147,0.47348 -0.24451,1.54211 -0.31787,2.37472 l -0.13339,1.51383 2.02797,2.12892 c 1.11538,1.17091 1.97966,2.27562 1.92062,2.45492 -0.059,0.17929 -0.37833,0.36567 -0.70955,0.41416 -0.44781,0.0656 -0.92471,-0.26632 -1.86005,-1.29444 l -1.25784,-1.38261 -0.19197,3.87567 -0.19197,3.87566 0.68368,0.81251 c 0.82213,0.97705 0.85305,1.3963 0.15452,2.09483 -0.66573,0.66573 -1.11451,0.66883 -1.70911,0.0118 z m -85.867977,-2.32009 c -1.044179,-0.39424 -2.446923,-1.85372 -3.444233,-3.58353 -1.260489,-2.18629 -2.3766,-5.29246 -2.3766,-6.61414 0,-1.65541 1.409994,-3.94174 3.646062,-5.91216 1.123364,-0.98991 2.399667,-2.17191 2.836229,-2.62667 0.436563,-0.45476 1.984375,-1.60125 3.439584,-2.54775 1.455208,-0.9465 3.223062,-2.34309 3.928564,-3.10352 0.705502,-0.76044 1.576456,-1.49429 1.935454,-1.63078 0.99805,-0.37946 39.923857,-0.32772 40.653897,0.054 0.31786,0.16621 1.53813,1.21928 2.71172,2.34015 1.17359,1.12087 2.87874,2.53275 3.78921,3.13751 2.31158,1.53539 5.50299,4.46474 6.26739,5.75275 1.29016,2.17389 0.69666,6.00889 -1.60892,10.39642 -1.3208,2.51348 -2.57675,3.91911 -3.83996,4.29758 -0.98261,0.29439 -1.06846,0.27144 -1.77044,-0.47326 -0.40903,-0.43394 -2.49106,-1.63493 -4.67283,-2.69548 l -3.93508,-1.91282 -17.13515,0.0159 -17.135155,0.0159 -2.080809,1.01437 c -8.300526,4.04639 -9.821473,4.5994 -11.208933,4.07556 z m 1.653719,-1.28571 c 0.08493,-0.0849 -0.08858,-0.56627 -0.385578,-1.06964 -0.675609,-1.14507 -0.466057,-1.37741 0.728533,-0.80775 0.512432,0.24437 1.200171,0.4443 1.528307,0.4443 0.328136,0 2.535095,-0.9515 4.904354,-2.11444 l 4.307744,-2.11445 17.815408,-0.0196 17.81541,-0.0196 1.2822,0.65968 c 0.70521,0.36283 2.65142,1.44164 4.32491,2.39737 1.67349,0.95572 3.23031,1.73823 3.45961,1.7389 1.41465,0.004 4.2133,-6.08668 4.2133,-9.16966 0,-2.35287 -2.14621,-5.26472 -4.26037,-5.78022 -0.81362,-0.19838 -0.96067,0.0594 -2.49106,4.36778 -1.30004,3.65984 -1.85899,4.72238 -2.57835,4.90133 -0.79437,0.19762 -3.6419,-0.69325 -3.99251,-1.24908 -0.216,-0.34243 0.13235,-1.6574 1.52688,-5.76371 1.92778,-5.67655 1.98051,-6.08776 1.03735,-8.0908 -0.43875,-0.93179 -0.60776,-1.05082 -1.67793,-1.18169 -0.65453,-0.08 -9.53546,-0.141 -19.73542,-0.13547 -14.786244,0.008 -18.629309,0.0795 -18.959483,0.35295 -0.613193,0.50774 -1.268083,2.02952 -1.299888,3.02056 -0.01535,0.47843 0.762009,3.11574 1.727474,5.86069 0.965464,2.74496 1.75539,5.27042 1.75539,5.61215 0,0.51972 -0.224188,0.6879 -1.370939,1.02845 -1.951023,0.57939 -2.733085,0.52269 -3.334399,-0.24176 -0.280726,-0.35689 -1.199009,-2.20709 -2.040629,-4.11156 -0.850037,-1.92352 -1.749454,-3.58001 -2.023439,-3.72664 -0.828403,-0.44335 -2.45126,0.16227 -3.25359,1.21418 -0.387955,0.50863 -1.35069,1.33759 -2.13941,1.84213 -0.959976,0.61409 -1.499547,1.16044 -1.632209,1.6527 -0.682825,2.53376 0.748144,7.11323 3.002382,9.60841 0.895442,0.99114 1.393882,1.24648 1.745952,0.89442 z m 15.12904,-8.34184 c -0.319578,-0.51709 0.499281,-0.77025 2.264506,-0.70011 1.392483,0.0553 1.733744,0.15576 1.805337,0.53125 0.07774,0.40773 -0.14915,0.46303 -1.899879,0.46303 -1.173323,0 -2.062671,-0.12057 -2.169964,-0.29417 z m 22.230968,0.01 c -0.34445,-0.55733 0.52071,-0.77716 2.79044,-0.70903 1.79269,0.0538 2.24896,0.14803 2.24896,0.46439 0,0.31841 -0.47961,0.41186 -2.42582,0.47266 -1.61586,0.0505 -2.48851,-0.0256 -2.61358,-0.22802 z m -23.579038,-3.04055 c -0.303638,-0.79127 0.383729,-1.04351 2.632888,-0.96619 2.253862,0.0775 2.748223,0.26999 2.481067,0.96619 -0.128276,0.33428 -0.623916,0.41466 -2.556977,0.41466 -1.933062,0 -2.428702,-0.0804 -2.556978,-0.41466 z m 24.300558,-0.18065 c 0.072,-0.50709 0.29668,-0.62121 1.51595,-0.77001 0.93494,-0.11411 1.51841,-0.33017 1.68226,-0.62295 0.22226,-0.39715 0.33692,-0.35403 1.00574,0.37823 1.2012,1.31515 0.85006,1.61004 -1.91715,1.61004 -2.30784,0 -2.36908,-0.016 -2.2868,-0.59531 z m 0.96684,-3.29621 c -0.76256,-0.11685 -1.17708,-0.73932 -0.69198,-1.03913 0.24734,-0.15287 3.19644,-0.22443 5.03521,-0.12218 0.26617,0.0148 0.46302,0.23543 0.46302,0.51895 0,0.38617 -0.2664,0.52972 -1.22755,0.66146 -1.26812,0.17381 -2.35772,0.168 -3.5787,-0.0191 z m -26.150004,-0.57809 c 0,-0.68302 0.492246,-0.82206 2.910417,-0.82206 2.418171,0 2.910417,0.13904 2.910417,0.82206 0,0.46107 -0.231219,0.50086 -2.910417,0.50086 -2.679198,0 -2.910417,-0.0398 -2.910417,-0.50086 z m 0.688908,-2.56573 c -0.29425,-0.7668 0.112828,-0.9022 2.700145,-0.89811 2.707608,0.004 3.405639,0.2033 3.140097,0.89529 -0.24037,0.62639 -5.599962,0.62898 -5.840242,0.003 z m 24.017886,0.0365 c -0.29628,-0.7721 0.20244,-0.93871 2.80988,-0.93871 2.65169,0 3.24055,0.20944 2.63621,0.93763 -0.46024,0.55456 -5.23333,0.5555 -5.44609,10e-4 z m -84.899502,18.12201 c -0.862869,-0.35926 -1.962687,-1.68822 -2.142919,-2.58938 -0.140578,-0.70289 -0.03687,-0.9708 0.636405,-1.64407 1.140384,-1.14039 2.448492,-1.11779 3.583493,0.0619 0.458391,0.47644 0.957652,1.08911 1.10947,1.3615 0.229742,0.41219 0.371029,0.4444 0.842502,0.19208 0.311558,-0.16674 0.801963,-0.30317 1.089788,-0.30317 0.342711,0 0.896592,-0.54684 1.604894,-1.58451 l 1.081575,-1.5845 -1.93e-4,-4.56706 -1.94e-4,-4.56705 3.109048,-3.0563 c 1.709976,-1.68096 4.106975,-4.12174 5.326665,-5.42396 l 2.217618,-2.36766 -1.159284,-0.16478 c -0.637607,-0.0906 -1.218816,-0.11907 -1.291576,-0.0632 -0.07276,0.0558 -2.41073,2.37685 -5.195487,5.15777 -2.946998,2.94294 -5.213978,5.00601 -5.423958,4.93608 -1.031513,-0.34348 -0.39722,-1.18431 4.709133,-6.24248 l 5.248853,-5.19932 4.233334,0.0822 c 2.328333,0.0452 4.338439,0.18345 4.466902,0.30717 0.534799,0.51502 -0.08704,1.05425 -1.217453,1.05572 -2.20595,0.003 -2.914834,0.38625 -4.769796,2.57955 -1.96023,2.31776 -3.075248,3.48264 -6.362979,6.64749 l -2.303133,2.21705 v 5.2402 c 0,2.88212 -0.107087,5.52187 -0.237971,5.86612 -0.130884,0.34425 -0.723644,0.94731 -1.317244,1.34014 -0.867364,0.57399 -1.386887,0.71423 -2.645987,0.71423 -1.437753,0 -1.64294,0.0762 -2.492756,0.92604 -0.931018,0.93102 -1.648102,1.10962 -2.69875,0.67218 z m 1.484759,-1.80271 c 0.231962,-0.62706 -0.300696,-1.38301 -0.974491,-1.38301 -0.444255,0 -0.481542,0.4869 -0.111765,1.45949 0.303677,0.79873 0.774763,0.76556 1.086256,-0.0765 z m 145.491283,0.86595 c -0.61761,-0.65742 -0.65012,-0.66146 -5.32217,-0.66146 -2.58542,0 -4.76771,-0.10832 -4.84953,-0.24071 -0.0818,-0.13239 -0.0761,-0.43004 0.0127,-0.66146 0.13918,-0.36271 0.80831,-0.42075 4.85094,-0.42075 h 4.68948 l 0.35884,-0.6705 c 0.50955,-0.95211 1.95951,-1.79272 2.70313,-1.56715 1.00134,0.30376 1.78995,1.20707 1.78995,2.05032 0,0.55184 -0.29931,1.07807 -1.02721,1.80596 -1.24395,1.24395 -2.27102,1.36112 -3.20613,0.36575 z m -8.92672,-6.7703 c -2.44271,-2.56096 -2.53831,-2.78023 -2.31448,-5.30881 l 0.18544,-2.09489 -3.66639,-3.68851 c -2.01651,-2.02868 -3.81107,-3.69132 -3.98791,-3.69477 -0.17684,-0.003 -0.71262,-0.34951 -1.19062,-0.76903 -0.47801,-0.41953 -1.31559,-0.94923 -1.86129,-1.17713 -0.66246,-0.27665 -0.99219,-0.58468 -0.99219,-0.92687 0,-0.33237 0.34876,-0.67761 0.99219,-0.98218 0.5457,-0.25831 1.11125,-0.62333 1.25677,-0.81115 0.19889,-0.25671 1.57838,-0.34957 5.55625,-0.374 2.91041,-0.0179 5.5743,-0.0236 5.91975,-0.0127 0.42653,0.0134 1.22332,0.65657 2.48287,2.00413 l 1.85479,1.98437 h 1.80259 1.8026 l 3.85047,3.80922 c 2.11776,2.09507 3.85047,3.94053 3.85047,4.10104 0,0.1605 -0.36782,0.29183 -0.81738,0.29183 -0.69959,0 -1.30055,-0.49567 -4.17027,-3.43959 l -3.35289,-3.43958 h -1.8948 c -2.09552,0 -2.28218,-0.11649 -4.47517,-2.79274 l -0.96365,-1.17601 h -5.2274 c -4.4702,0 -5.27832,0.0614 -5.57893,0.42357 -0.39255,0.47299 -0.5537,1.14781 -0.28516,1.1941 0.0963,0.0166 0.51621,0.0701 0.93322,0.11879 0.41701,0.0487 0.79987,0.13029 0.8508,0.18122 0.0509,0.0509 2.00169,1.95621 4.33503,4.23396 l 4.24243,4.14136 v 2.60362 2.60362 l 1.15971,1.13817 c 0.71625,0.70294 1.2281,1.02753 1.33854,0.84884 0.33254,-0.53808 1.93633,-0.33692 2.38154,0.2987 0.56875,0.81201 0.5163,1.33829 -0.20049,2.01168 -1.09211,1.02599 -1.84102,0.77085 -3.81644,-1.30022 z M 37.811015,123.00217 c -0.151549,-0.54571 -0.276208,-1.15481 -0.27702,-1.35357 -8.11e-4,-0.19877 1.286954,-1.68705 2.8617,-3.3073 1.574747,-1.62024 3.344803,-3.60075 3.93346,-4.40111 1.604058,-2.18095 1.944567,-2.40938 3.833297,-2.57153 1.588933,-0.13642 1.733955,-0.20853 2.879801,-1.4319 0.955187,-1.01981 1.382455,-1.28824 2.050521,-1.28824 1.335473,0 1.05452,0.73111 -0.991336,2.57969 -1.821722,1.64606 -1.837487,1.65365 -3.437018,1.65365 -1.810412,0 -1.866673,0.0391 -3.64878,2.53702 -0.613711,0.86021 -2.236657,2.67194 -3.606547,4.02606 -2.083751,2.05977 -2.517977,2.63257 -2.657601,3.50573 -0.210139,1.31414 -0.584137,1.33462 -0.940477,0.0515 z m 129.235055,0.5052 c -1.13463,-0.69331 -1.62542,-1.70712 -1.23803,-2.55736 0.16731,-0.36719 0.60713,-0.80564 0.97739,-0.97434 0.61118,-0.27848 0.76995,-0.21225 1.72368,0.71905 1.22596,1.19711 1.39239,2.23641 0.46246,2.88776 -0.74906,0.52466 -0.95723,0.51654 -1.9255,-0.0751 z M 16.365853,123.0111 c -0.868603,-0.31173 -1.5875,-1.23857 -1.5875,-2.0467 0,-1.08327 0.562464,-1.83928 1.991461,-2.67673 1.249452,-0.73222 2.422593,-0.72051 3.045807,0.0304 0.257049,0.30972 0.892177,-0.17764 3.642631,-2.79514 2.581619,-2.45682 3.493224,-3.17026 4.050836,-3.17026 1.815698,0 4.230707,-1.99086 9.628559,-7.9375 l 1.320914,-1.45521 5.820834,-0.13872 c 4.792806,-0.11422 5.902271,-0.0722 6.281946,0.23772 0.497162,0.40587 2.521813,0.50027 3.706074,0.1728 0.618512,-0.17103 0.727605,-0.12175 0.727605,0.32867 0,0.34563 -0.322507,0.6829 -0.927553,0.97001 -0.775146,0.36783 -1.174393,0.39452 -2.429843,0.16244 -0.82626,-0.15274 -3.974785,-0.27771 -6.996723,-0.27771 h -5.494432 l -3.479504,3.77031 c -2.939573,3.18526 -3.793552,3.94332 -5.503329,4.88524 -1.113104,0.61321 -2.243039,1.11922 -2.510968,1.12448 -0.267929,0.005 -1.627955,1.08024 -3.02228,2.38886 -1.394325,1.30862 -2.871752,2.52831 -3.283169,2.71042 -0.411418,0.18211 -0.748033,0.43288 -0.748033,0.55727 0,1.49058 -2.884619,3.64337 -4.233333,3.15933 z m 165.232297,-0.57269 c -2.08251,-0.95629 -2.68449,-2.5595 -1.45319,-3.87017 0.82123,-0.87415 2.07775,-0.86632 3.41908,0.0213 1.3298,0.88002 1.79352,1.93203 1.33721,3.03365 -0.57401,1.38578 -1.54088,1.6244 -3.3031,0.81519 z m -20.54804,-8.01283 c -2.79122,-2.8528 -3.92592,-4.19105 -3.92592,-4.63021 0,-0.35888 0.15834,-0.61768 0.37791,-0.61768 0.20785,0 2.08308,1.73389 4.16718,3.85309 2.88767,2.9363 3.80901,4.038 3.8722,4.63021 0.0514,0.48204 -0.0402,0.77712 -0.24127,0.77712 -0.1783,0 -2.09084,-1.80564 -4.2501,-4.01253 z m -90.312382,-2.06143 c 1.024572,-1.15579 3.785786,-2.15221 3.514458,-1.26823 -0.114798,0.374 -2.098123,1.39111 -3.268924,1.6764 l -0.774701,0.18877 z m 60.658132,0.14122 c -1.97383,-0.70447 -3.00963,-1.74737 -1.72219,-1.734 0.72289,0.008 3.16344,1.31924 3.31133,1.77976 0.13394,0.4171 -0.32966,0.40375 -1.58914,-0.0458 z M 26.939445,109.82741 c -0.282549,-0.34045 0.02645,-0.77701 2.010948,-2.8411 1.289638,-1.34135 2.471249,-2.55789 2.625802,-2.70341 0.154554,-0.14552 1.314802,-1.47156 2.578329,-2.94675 l 2.297322,-2.682164 5.99405,-0.19544 c 3.296728,-0.10749 6.546208,-0.13057 7.221066,-0.0513 0.963595,0.1132 1.361113,0.0351 1.85164,-0.36355 0.90818,-0.73817 1.72574,-0.62606 2.79612,0.38344 0.682794,0.64396 0.944881,1.11534 0.944881,1.699444 0,1.09103 -1.333457,2.43651 -2.414742,2.43651 -1.672631,0 -3.030846,-1.33863 -2.688091,-2.649334 0.125669,-0.48056 0.06299,-0.56024 -0.348535,-0.44309 -0.275966,0.0786 -3.211228,0.22446 -6.522804,0.32422 l -6.021047,0.18138 -2.070266,2.417894 c -2.508778,2.93003 -5.958604,6.45887 -7.090691,7.2531 -0.734348,0.51519 -0.868656,0.53598 -1.163982,0.18013 z m 26.596987,-9.3755 c 0.08808,-0.14252 0.02832,-0.505434 -0.132791,-0.806474 -0.215907,-0.40342 -0.445231,-0.5014 -0.872131,-0.3726 -0.814095,0.24561 -1.071694,0.54278 -0.887218,1.023524 0.176426,0.45976 1.630262,0.57927 1.89214,0.15555 z m 113.774218,6.3347 -2.38125,-2.36768 -5.07811,-0.002 c -4.68052,-0.002 -5.15179,-0.0453 -6.01927,-0.55717 -0.97595,-0.57583 -1.25975,-1.45572 -0.55656,-1.72556 0.21153,-0.0812 0.65474,0.0416 0.98491,0.27289 0.50085,0.3508 1.49252,0.42047 5.98504,0.42047 h 5.38473 l 1.59698,1.52135 c 2.3846,2.27167 3.68624,3.91127 3.49685,4.40479 -0.31095,0.81033 -1.04583,0.38679 -3.41332,-1.96722 z m -85.703239,-0.93637 c -3.832444,-1.40402 -11.795725,-6.174854 -11.795725,-7.066874 0,-1.18986 9.42313,3.661434 12.47803,6.424034 1.21205,1.09608 1.028058,1.26943 -0.682305,0.64284 z m 39.665739,-0.5117 c 1.55394,-1.41271 4.14449,-3.05546 7.90365,-5.01193 3.30853,-1.721954 4.66406,-2.110534 4.66406,-1.337044 0,1.054604 -9.80287,6.498134 -12.88065,7.152614 -0.72666,0.15453 -0.71879,0.13433 0.31294,-0.80364 z m 27.58281,-1.02708 c -0.90504,-0.68703 -0.53498,-0.97481 1.19063,-0.9259 0.9095,0.0258 1.77271,0.0158 1.91823,-0.0222 0.97317,-0.25423 1.30008,0.56849 0.41427,1.04257 -0.72081,0.38576 -2.96997,0.32549 -3.52313,-0.0944 z m -132.536347,-1.0797 c -0.627086,-0.42611 -1.119458,-1.06438 -1.412006,-1.83041 -0.583321,-1.527414 -0.234377,-2.676004 1.209183,-3.980174 0.874593,-0.79014 1.239871,-0.94349 2.247339,-0.94349 1.629525,0 2.509023,0.51473 3.580332,2.0954 0.623547,0.92001 1.026713,1.28255 1.300559,1.16949 1.843706,-0.7612 2.614328,-0.94891 3.245321,-0.79055 0.967883,0.24293 1.255817,1.344204 0.538893,2.061124 -0.504163,0.50416 -0.572873,0.50622 -2.473394,0.0739 -1.886315,-0.42903 -1.964403,-0.42722 -2.228135,0.0516 -0.150321,0.27294 -0.76366,1.00274 -1.362976,1.62177 -0.990297,1.02287 -1.207878,1.12551 -2.385977,1.12551 -0.942959,0 -1.558761,-0.17834 -2.259139,-0.65426 z m 3.001969,-1.90029 c 1.091812,-0.98807 0.167308,-2.980664 -1.221247,-2.632154 -1.055396,0.26489 -1.36546,2.053054 -0.47499,2.739314 0.583023,0.44931 1.118741,0.41547 1.696237,-0.10716 z m 160.315028,2.09763 c -0.49676,-0.24468 -1.09208,-0.78667 -1.32292,-1.20441 -0.85917,-1.55481 -0.78464,-1.52352 -2.66867,-1.12058 -1.49194,0.31908 -1.79866,0.3166 -2.3151,-0.0187 -0.69413,-0.45071 -0.77039,-1.219804 -0.17954,-1.810664 0.52686,-0.52686 0.97116,-0.51349 2.69199,0.081 l 1.38796,0.4795 0.68343,-1.16617 c 0.87504,-1.49316 2.01222,-2.18909 3.57912,-2.19036 2.25876,-0.002 4.10333,1.9655 3.84421,4.100054 -0.1022,0.84185 -0.3812,1.28834 -1.364,2.18281 -1.04203,0.94839 -1.4076,1.12354 -2.33439,1.11846 -0.60439,-0.003 -1.50533,-0.20622 -2.00209,-0.4509 z m 2.88758,-2.18891 c 0.63569,-0.63569 0.67164,-1.266354 0.11729,-2.057804 -0.55841,-0.79724 -1.53985,-0.7489 -2.21475,0.10911 -0.65681,0.834994 -0.67723,1.117804 -0.13649,1.889824 0.51423,0.73417 1.53183,0.76099 2.23395,0.0589 z m -84.469315,1.05338 c -2.63274,-0.66744 -5.124,-2.708794 -7.259184,-5.948174 -2.09594,-3.17985 -4.113625,-6.96364 -5.149705,-9.65729 -0.436362,-1.13448 0.293662,-0.15247 2.556969,3.43958 2.645855,4.19918 3.990004,5.9657 5.728987,7.52919 2.764603,2.485624 5.690953,3.354414 8.986028,2.667834 4.5611,-0.950384 6.87191,-3.155744 11.73151,-11.196134 2.73176,-4.5198 2.55721,-3.55663 -0.44479,2.45432 -4.13957,8.28874 -6.87924,10.643244 -12.643,10.865544 -1.38245,0.0533 -2.960515,-0.0164 -3.506815,-0.15487 z m 50.840215,-0.33429 c -1.20975,-0.81252 -1.38565,-2.240894 -0.39763,-3.228914 1.17214,-1.17215 3.41351,-0.73599 3.7049,0.72096 0.27399,1.369954 0.18084,1.794194 -0.54076,2.462954 -0.87213,0.80826 -1.61219,0.8203 -2.76651,0.045 z m 2.01139,-1.94003 c 0,-0.316194 -0.21842,-0.529874 -0.59649,-0.583564 -0.64131,-0.0911 -1.02022,0.47283 -0.76487,1.138264 0.21502,0.56033 1.36136,0.0932 1.36136,-0.5547 z m 2.01197,-0.608494 c -0.20311,-0.12861 -0.30014,-0.41401 -0.21564,-0.63422 0.12206,-0.31809 0.79614,-0.42047 3.2797,-0.49813 1.71933,-0.0538 3.24512,-0.0184 3.39064,0.0786 0.14552,0.097 0.6813,0.26357 1.19062,0.37025 2.57217,0.53874 1.25283,0.88504 -3.43958,0.90283 -2.11005,0.008 -4.00263,-0.0907 -4.20574,-0.21928 z m -110.287227,-5.1047 c -1.505709,-1.50661 -1.981486,-1.84517 -2.235729,-1.59093 -0.233418,0.23342 -1.84,0.32298 -5.793911,0.32298 -4.540276,0 -5.526967,-0.0675 -5.800313,-0.39688 -0.258207,-0.31112 -0.260168,-0.48027 -0.0091,-0.78281 0.269762,-0.32505 1.157396,-0.36002 5.625797,-0.22169 6.18073,0.19134 5.98181,0.39051 2.676185,-2.67964 l -2.158137,-2.0044 h -6.286459 -6.286481 l -1.697073,-1.69707 c -1.281602,-1.28161 -1.675646,-1.84838 -1.609549,-2.31511 0.16982,-1.19913 1.090785,-0.90616 2.589419,0.82373 l 1.386922,1.60095 h 5.909722 c 3.250347,0 6.185363,0.11167 6.522258,0.24817 0.336896,0.13649 2.617696,2.22008 5.068446,4.6302 l 4.455909,4.38205 h 7.269478 7.269478 l -0.08372,0.7276 -0.08372,0.7276 -7.408334,0.0696 -7.408333,0.0696 z m 101.833077,1.67285 c -0.19622,-0.12435 -0.31372,-0.44995 -0.26112,-0.72355 0.0896,-0.46591 0.45795,-0.50198 5.80693,-0.56866 l 5.71127,-0.0712 2.71724,-2.91673 2.71724,-2.91673 4.08201,0.0366 c 4.07503,0.0365 4.0831,0.0354 4.71841,-0.6501 0.88211,-0.95181 2.27056,-0.94701 3.02371,0.0104 1.61231,2.04973 -0.9229,4.34752 -2.99682,2.71617 -0.65044,-0.51164 -1.01264,-0.55237 -4.59203,-0.51642 l -3.8859,0.039 -1.31895,1.50861 c -0.72543,0.82974 -1.93117,2.13369 -2.67943,2.89767 l -1.36048,1.38907 -5.66266,-0.004 c -3.11446,-0.002 -5.8232,-0.10579 -6.01942,-0.23014 z m 27.21197,-6.64497 c 0,-0.14552 -0.11906,-0.26458 -0.26458,-0.26458 -0.14552,0 -0.26458,0.11906 -0.26458,0.26458 0,0.14552 0.11906,0.26458 0.26458,0.26458 0.14552,0 0.26458,-0.11906 0.26458,-0.26458 z m -24.32484,3.76177 c -3.46751,-0.0787 -4.47167,-0.37072 -3.56202,-1.03587 0.34634,-0.25325 1.74818,-0.34465 5.28605,-0.34465 h 4.81472 l 2.4769,-2.68312 c 1.3623,-1.47572 3.07222,-3.29312 3.79982,-4.03868 0.7276,-0.74556 1.74913,-1.88626 2.27007,-2.53489 0.88164,-1.09775 1.0351,-1.17984 2.21866,-1.18684 1.07338,-0.006 1.30582,-0.10028 1.49172,-0.60283 0.27498,-0.7434 1.17725,-0.78165 1.56017,-0.0661 0.25984,0.48551 0.554,0.52917 3.56572,0.52917 h 3.28252 l 1.2202,-1.58575 c 0.67112,-0.87216 1.46339,-1.71589 1.76062,-1.87497 0.29723,-0.15907 1.22408,-0.24984 2.05966,-0.20171 1.37931,0.0795 1.57801,0.0206 2.15745,-0.63885 0.95156,-1.083 2.06689,-1.20118 3.10359,-0.32885 1.08048,0.90916 1.15964,2.21978 0.19248,3.18694 -0.84761,0.84761 -1.9903,0.84304 -3.00648,-0.012 -0.97019,-0.81636 -0.97853,-0.81625 -1.97912,0.0257 -0.66535,0.55986 -0.99473,0.65867 -1.77813,0.5334 -0.89568,-0.14322 -1.0204,-0.0751 -1.82208,0.99482 l -0.86059,1.14856 -2.1625,0.15261 c -1.18937,0.0839 -2.99378,0.0495 -4.0098,-0.0765 l -1.8473,-0.2291 -0.70627,0.84192 -0.70627,0.84192 -0.63797,-0.59531 c -0.35087,-0.32742 -0.82418,-0.59531 -1.05178,-0.59531 -0.22761,0 -0.94792,0.62507 -1.6007,1.38906 l -1.18687,1.38906 3.29642,-0.094 c 3.44078,-0.0982 4.17706,0.0852 3.52026,0.87658 -0.27126,0.32684 -0.98011,0.40809 -3.56066,0.40809 -1.92159,0 -3.33544,-0.11347 -3.5031,-0.28113 -0.32409,-0.32408 -0.87502,0.17272 -4.46058,4.02224 l -2.37559,2.55048 -1.98438,0.0953 c -1.0914,0.0524 -3.46508,0.0617 -5.27484,0.0207 z m 36.50689,-15.23347 c -0.35327,-0.35328 -0.94567,0.18206 -0.67898,0.61358 0.13727,0.22209 0.28602,0.21723 0.57024,-0.0187 0.26678,-0.22141 0.30008,-0.40359 0.10874,-0.59493 z m -142.304,10.71294 c -2.575792,-2.45946 -4.971904,-4.78317 -5.324692,-5.16379 -0.628,-0.67754 -0.713046,-0.69203 -4.061055,-0.69203 -3.867098,0 -4.796129,-0.27414 -5.91927,-1.74666 -0.844864,-1.10767 -1.445743,-1.2992 -2.448754,-0.78052 -1.273734,0.65867 -2.230923,0.5163 -3.465946,-0.51553 -0.60962,-0.50933 -1.140294,-0.92604 -1.179277,-0.92604 -0.03898,0 -0.520339,0.35718 -1.069681,0.79375 -1.261373,1.00241 -2.199766,1.01792 -3.125499,0.0517 -2.124286,-2.21727 1.170849,-4.84846 3.384705,-2.70271 0.804707,0.77995 0.831818,0.7856 2.490192,0.51853 1.881521,-0.30301 2.704569,0.005 3.258245,1.22047 0.236525,0.51911 0.491416,0.64746 1.285835,0.64746 0.744865,0 1.265981,0.22988 2.09923,0.92604 l 1.1084,0.92605 h 3.576493 3.576493 l 5.063578,4.82864 c 2.784967,2.65576 5.242171,5.0372 5.460453,5.29209 0.355938,0.41565 1.092803,0.47023 7.14375,0.52917 6.548579,0.0638 6.746875,0.0813 6.746875,0.59489 0,0.51396 -0.199911,0.53119 -6.958409,0.59973 l -6.958408,0.0706 z m -24.6593,-10.48603 c 0.275184,-0.33158 0.236981,-0.39688 -0.232187,-0.39688 -0.322779,0 -0.561563,0.16876 -0.561563,0.39688 0,0.21828 0.104483,0.39687 0.232186,0.39687 0.127703,0 0.380406,-0.17859 0.561564,-0.39687 z m 28.806179,10.02565 c -1.218555,-1.12928 -3.108523,-2.91346 -4.199929,-3.96484 -1.091407,-1.05138 -2.579688,-2.44286 -3.307292,-3.09218 -0.727604,-0.64932 -2.037292,-1.81706 -2.910417,-2.59499 -1.643269,-1.4641 -1.970626,-2.17446 -1.058333,-2.29654 0.564488,-0.0755 1.999913,1.09962 6.084055,4.98093 1.310437,1.24535 3.342045,3.15035 4.514686,4.23333 2.37288,2.19145 3.786753,4.09356 3.360012,4.5203 -0.179914,0.17991 -0.991133,-0.40364 -2.482782,-1.78601 z m 4.082605,0.22695 c -0.63707,-0.69122 -1.6004,-1.90234 -2.140734,-2.69136 -1.099414,-1.60543 -1.177165,-1.68874 -5.165523,-5.53456 -4.721583,-4.55285 -10.236694,-10.35382 -10.236694,-10.76728 0,-0.98568 1.21977,-0.0619 5.406819,4.09482 2.483281,2.46529 5.573417,5.47162 6.866969,6.68073 2.315793,2.16462 3.496893,3.51858 5.585587,6.40309 l 1.058333,1.46156 5.622396,0.0111 5.622396,0.0111 v 0.63315 c 0,0.34824 -0.188332,0.70542 -0.418515,0.79375 -0.230183,0.0883 -2.808962,0.1606 -5.73062,0.1606 h -5.312106 z m 91.253716,0.93927 c -0.44019,-0.44019 -0.39665,-0.91843 0.10102,-1.1094 0.23018,-0.0883 2.9267,-0.1606 5.99225,-0.1606 h 5.57374 l 2.33294,-2.24896 c 2.28366,-2.20145 3.14505,-2.6958 3.14505,-1.80493 0,0.45781 -3.5874,4.35715 -4.7625,5.17663 -0.57899,0.40377 -1.37231,0.46149 -6.36322,0.46302 -4.08398,10e-4 -5.79186,-0.0883 -6.01928,-0.31576 z m 11.95741,-4.02625 c -0.0791,-0.20625 0.0139,-0.6717 0.20674,-1.03434 0.39952,-0.75125 9.06133,-9.17399 9.43438,-9.17399 0.1343,0 0.40135,0.18937 0.59344,0.42083 0.30373,0.36598 0.006,0.75189 -2.28271,2.96082 -1.44758,1.397 -3.71443,3.58887 -5.03743,4.87084 -1.32301,1.28196 -2.48761,2.33084 -2.588,2.33084 -0.10038,0 -0.24727,-0.16875 -0.32642,-0.375 z m -63.899806,-0.51944 c -2.939973,-1.0506 -4.752135,-3.12604 -6.067382,-6.94887 -0.611921,-1.77858 -0.96168,-5.50732 -0.54098,-5.76733 0.1681,-0.10389 0.85617,0.26939 1.552478,0.84223 3.842054,3.16075 8.016599,4.93027 13.288675,5.63283 1.23669,0.1648 2.29502,0.34614 2.35185,0.40297 0.24204,0.24204 -1.78466,3.17162 -2.84166,4.10761 -2.087115,1.84818 -5.364221,2.58061 -7.742981,1.73056 z m 18.785426,0 c -1.46774,-0.5245 -2.70728,-1.37333 -3.90855,-2.67656 -1.13135,-1.22736 -2.09412,-2.91879 -1.81837,-3.19455 0.0867,-0.0867 1.01131,-0.2648 2.05472,-0.39582 4.15089,-0.5212 8.62199,-2.36794 12.12665,-5.00879 1.15922,-0.87349 2.23851,-1.58817 2.39843,-1.58817 0.37218,0 0.38459,2.87258 0.0207,4.79138 -0.35246,1.85853 -1.53682,4.32127 -2.74491,5.70772 -1.36877,1.57086 -3.80287,2.73329 -5.69239,2.71845 -0.8135,-0.006 -1.90983,-0.16553 -2.43628,-0.35366 z m -57.083171,-2.08212 c -1.012602,-0.90951 -2.952926,-2.67526 -4.311831,-3.9239 -1.358905,-1.24864 -3.006518,-2.63767 -3.661362,-3.08675 -0.654844,-0.44907 -2.095088,-1.68965 -3.200542,-2.75683 -1.105454,-1.06718 -2.918363,-2.80354 -4.028686,-3.85856 l -2.018769,-1.91823 h -2.374312 c -1.67374,0 -2.436744,0.1023 -2.585898,0.3467 -0.384305,0.62971 -1.507827,1.2408 -2.281289,1.2408 -0.51818,0 -1.058859,-0.29752 -1.692891,-0.93156 -0.799555,-0.79955 -0.908371,-1.05261 -0.767948,-1.78593 0.194376,-1.01508 1.516685,-2.30959 2.35918,-2.30959 0.665023,0 1.722896,0.64611 2.252512,1.37576 0.29086,0.40072 0.742651,0.47632 2.84657,0.47632 h 2.500837 l 1.651347,1.51168 c 0.908241,0.83143 2.915947,2.74425 4.461569,4.25072 3.59047,3.49952 3.741293,3.60701 4.147765,2.95615 0.260142,-0.41655 0.225863,-0.54719 -0.203936,-0.77721 -0.303219,-0.16228 -0.454365,-0.43878 -0.36589,-0.66934 0.08291,-0.21606 0.02313,-0.39283 -0.132836,-0.39283 -0.337603,0 -0.939106,-1.03879 -0.725304,-1.2526 0.373933,-0.37393 2.211456,1.34505 2.907733,2.72015 0.744876,1.47108 0.765958,2.25797 0.03459,1.29126 -0.21215,-0.28042 -0.389513,-0.37397 -0.394141,-0.20788 -0.0046,0.16608 0.854452,1.11858 1.909066,2.11666 1.054615,0.99808 2.803629,2.6779 3.886697,3.73293 l 1.969216,1.91823 h 6.572649 c 5.855133,0 6.590877,0.0475 6.739626,0.43513 0.387789,1.01057 -0.502274,1.15237 -7.233261,1.15237 h -6.419365 z m -24.002564,-16.2436 c 0.09176,-0.23911 0.112415,-0.48916 0.04591,-0.55566 -0.210274,-0.21027 -0.68529,0.21196 -0.68529,0.60915 0,0.51898 0.43362,0.48271 0.639379,-0.0535 z m 110.261155,17.66305 c -0.19622,-0.12435 -0.31381,-0.44995 -0.2613,-0.72355 0.0893,-0.46519 0.49286,-0.50604 6.2221,-0.62975 l 6.12665,-0.1323 3.39507,-3.29811 c 1.86729,-1.81397 4.40711,-4.32507 5.64403,-5.58022 1.68266,-1.70745 2.54877,-2.38008 3.43959,-2.67119 0.97403,-0.31831 1.44345,-0.72306 2.58045,-2.22499 l 1.38984,-1.8359 -2.31588,-0.068 -2.31587,-0.068 -5.89809,5.82691 -5.89808,5.82692 -7.19879,-0.0704 -7.19879,-0.0704 -0.0846,-0.59531 -0.0846,-0.59531 h 6.93959 6.93958 l 5.77028,-5.7338 c 3.17366,-3.15359 5.92295,-5.83627 6.10955,-5.96151 0.1866,-0.12524 2.78523,-0.14897 5.77474,-0.0527 l 5.43546,0.17495 0.82804,-0.82803 c 1.05986,-1.05986 1.98373,-1.07665 3.00575,-0.0546 1.32615,1.32614 1.02324,2.78296 -0.77196,3.71267 -0.7393,0.38288 -1.96473,-0.0185 -2.53286,-0.82961 -0.30732,-0.43877 -0.63745,-0.49393 -2.55284,-0.42656 l -2.19987,0.0774 -1.6038,2.11667 c -1.34605,1.77647 -1.86729,2.24423 -3.24318,2.91041 -1.15654,0.55997 -2.28931,1.45613 -3.84608,3.04271 -1.21369,1.23693 -3.76799,3.76701 -5.67622,5.6224 l -3.46952,3.37344 -6.04586,-0.004 c -3.32523,-0.002 -6.20641,-0.10579 -6.40263,-0.23014 z m -85.060582,-6.97145 c -0.775027,-0.76632 -2.441228,-2.36612 -3.70267,-3.55511 -1.891751,-1.78309 -2.293532,-2.30087 -2.293532,-2.95569 0,-0.66918 -0.452414,-1.21535 -2.880113,-3.47701 l -2.880113,-2.68313 0.13669,-2.29869 c 0.07518,-1.26427 0.254609,-2.52626 0.398732,-2.8044 0.221898,-0.42825 0.0067,-0.73483 -1.404833,-2.00125 -1.211561,-1.08702 -1.62011,-1.6174 -1.495673,-1.94168 0.284912,-0.74247 0.777558,-0.5243 3.025486,1.33979 1.184521,0.98227 2.45937,1.99986 2.832999,2.26131 0.463654,0.32446 0.679325,0.71872 0.679325,1.24187 0,0.65125 0.41251,1.10578 2.743588,3.02304 2.877575,2.36674 3.050781,2.63988 3.097,4.88394 0.01788,0.86836 0.233905,1.14191 2.282923,2.89093 l 2.26317,1.93182 2.875724,-0.0797 c 1.581648,-0.0439 2.876051,-0.16903 2.876451,-0.27817 4e-4,-0.10914 -0.304732,-0.19843 -0.678072,-0.19843 -1.211453,0 -4.408161,-1.71277 -6.00193,-3.21578 l -1.521354,-1.43471 0.0054,-3.82632 0.0054,-3.82632 -1.982168,-1.85208 c -1.964524,-1.8356 -1.983287,-1.86589 -2.107895,-3.40233 -0.119681,-1.47569 -0.204159,-1.63193 -1.756383,-3.24841 -1.2927,-1.34621 -1.597984,-1.82003 -1.473016,-2.28621 0.0867,-0.323429 0.159265,-0.67735 0.161252,-0.786491 0.0087,-0.478724 0.60322,-0.110505 1.65181,1.023081 2.553095,2.76005 2.515673,2.69976 2.645213,4.26184 0.122126,1.47268 0.14932,1.51466 2.28072,3.52109 l 2.15712,2.03064 v 3.99675 3.99675 l 0.727604,0.67876 c 0.400183,0.37332 1.144323,0.95283 1.653646,1.28779 0.509323,0.33496 1.408692,0.9273 1.998597,1.31631 1.035319,0.68275 1.202413,0.7073 4.813031,0.7073 3.774065,0 4.408933,0.15823 3.762087,0.93763 -0.22935,0.27635 -0.896423,0.38529 -2.359319,0.38529 -1.904742,0 -2.062961,0.0437 -2.393562,0.66146 -0.353675,0.66084 -0.357707,0.66146 -4.360264,0.66146 h -4.006262 l -1.439133,-1.28639 c -0.791523,-0.70752 -1.945149,-1.7334 -2.563612,-2.27975 -1.075683,-0.95025 -1.124479,-1.05892 -1.124479,-2.50433 v -1.51097 l -2.724072,-2.26445 c -2.228606,-1.85258 -2.769995,-2.44513 -2.976562,-3.25787 -0.139922,-0.55052 -0.530953,-1.17686 -0.877078,-1.40488 l -0.624587,-0.41145 0.09542,2.3173 0.09542,2.31729 1.329561,1.24014 c 0.731258,0.68208 1.998087,1.84967 2.815175,2.59465 1.188634,1.08373 1.522081,1.57034 1.668035,2.43424 0.159537,0.94428 0.535186,1.405 2.994499,3.67258 1.546643,1.42606 3.025459,2.8012 3.286258,3.05586 0.427056,0.41701 1.159665,0.46303 7.371749,0.46303 h 6.897569 l -0.08455,0.59531 -0.08455,0.59531 -7.211392,0.0704 -7.211393,0.0704 z m 87.490532,-3.80823 c -0.78448,-0.83616 -0.94563,-0.89237 -2.55804,-0.89237 -1.91984,0 -2.55786,-0.16266 -2.55786,-0.65208 0,-0.34767 2.1129,-0.66098 4.60288,-0.68253 1.33505,-0.0116 1.37841,-0.0386 3.85119,-2.40507 l 2.50093,-2.39338 -0.0744,-4.43333 -0.0744,-4.43333 1.93909,-1.75763 c 3.10193,-2.81166 4.05938,-2.19623 1.19519,0.76825 l -1.66993,1.72841 0.0487,2.3017 c 0.0268,1.26593 0.0814,3.1443 0.1212,4.17414 0.0399,1.02985 -0.0358,2.06594 -0.16817,2.30242 -0.23907,0.42719 -2.98592,2.97004 -5.00145,4.63 -1.40845,1.15998 -1.02483,1.37071 2.51871,1.38358 l 2.77812,0.0101 3.79284,-3.90865 c 2.08607,-2.14975 4.1446,-4.37948 4.57453,-4.95497 0.42993,-0.57548 1.30762,-1.61727 1.95043,-2.3151 l 1.16874,-1.26877 h 4.39653 4.39653 l 1.32998,-1.45521 c 0.73149,-0.80037 1.47817,-1.45521 1.6593,-1.45521 0.3738,0 1.20794,0.84244 1.19952,1.21146 -0.003,0.13406 -0.65776,0.92836 -1.45489,1.7651 l -1.44933,1.52136 h -4.74627 -4.74626 l -1.27332,1.49365 c -2.82921,3.31875 -9.48229,10.21402 -10.07139,10.438 -0.346,0.13155 -2.13939,0.22403 -3.98531,0.20551 l -3.35621,-0.0337 z m -76.95972,-4.79292 -2.390695,-0.0866 -1.908785,-1.78083 -1.908784,-1.78083 v -3.07545 -3.07545 l -1.598802,-1.5465 c -0.879341,-0.85057 -1.772309,-1.64359 -1.984375,-1.76227 -0.212065,-0.11868 -0.385573,-0.44798 -0.385573,-0.7318 0,-0.88603 0.967465,-0.59296 2.445349,0.74076 0.76594,0.69122 1.727175,1.51791 2.136079,1.83708 0.727945,0.5682 0.746174,0.64827 0.873378,3.83646 l 0.129915,3.25614 1.417705,1.38907 1.417705,1.38906 h 3.065977 c 1.867595,0 3.065976,0.10341 3.065976,0.26458 0,0.45948 -1.038747,1.32524 -1.521355,1.26801 -0.254661,-0.0302 -1.538833,-0.0939 -2.853715,-0.14147 z m 72.38914,-0.5672 c -0.14688,-0.27445 -0.68506,-0.74563 -1.19596,-1.04707 -0.53402,-0.31508 -0.87263,-0.69468 -0.79654,-0.89297 0.0728,-0.18971 0.81514,-0.61294 1.64967,-0.94051 0.83452,-0.32758 2.46981,-1.28051 3.63397,-2.11764 l 2.11667,-1.52204 0.13229,-3.83258 c 0.14881,-4.31118 0.16084,-4.34303 2.34313,-6.2058 0.73712,-0.6292 1.98451,-1.90344 2.77197,-2.831654 1.51553,-1.786428 3.21549,-3.129491 3.9611,-3.129491 0.81726,0 0.47841,1.033529 -0.6725,2.05121 -0.61671,0.545324 -1.42038,1.333473 -1.78593,1.751445 -0.36556,0.41797 -1.64691,1.7167 -2.84746,2.88608 l -2.18281,2.12613 -0.004,3.72851 c -0.002,2.05067 -0.0915,3.85874 -0.19844,4.01792 -0.36311,0.54064 -3.62734,2.80702 -5.15532,3.57939 -2.16783,1.0958 -2.03582,1.55515 0.44693,1.55515 1.92497,0 1.99593,-0.0239 3.22493,-1.08763 1.76568,-1.52818 3.19425,-2.43214 3.52276,-2.2291 0.55147,0.34082 0.26016,0.92519 -0.95438,1.9145 -0.67883,0.55294 -1.67553,1.39231 -2.21488,1.86525 -0.94353,0.82735 -1.06669,0.8599 -3.25437,0.8599 -1.95712,0 -2.31091,-0.0695 -2.54078,-0.499 z m -66.892511,-1.27561 c -0.329027,-0.0633 -0.778569,-0.46378 -0.998982,-0.89001 -0.433091,-0.83751 -1.032206,-1.01495 -1.276591,-0.37809 -0.08661,0.22571 -0.481077,0.39687 -0.914652,0.39687 -0.80516,0 -2.071632,-0.83028 -3.950605,-2.58995 l -1.124479,-1.05308 v -3.0853 c 0,-3.4435 0.212052,-2.98124 -2.459234,-5.36089 l -1.244933,-1.10902 v -2.8895 c 0,-2.797623 -0.02468,-2.920547 -0.776125,-3.866121 -0.426868,-0.537145 -1.091632,-1.224805 -1.477253,-1.528134 -0.964249,-0.758479 -1.231586,-1.551197 -0.719018,-2.132066 0.627704,-0.711347 1.05296,-0.573727 2.738031,0.886075 l 1.557282,1.349096 0.0036,3.347258 c 0.002,1.840992 0.07354,3.585382 0.159007,3.876422 0.08547,0.29105 0.907845,1.17883 1.827509,1.97285 l 1.672115,1.44368 0.19581,3.31882 0.195811,3.31882 1.415724,1.25677 c 0.882386,0.78332 1.663753,1.25677 2.074109,1.25677 0.752971,0 0.787237,-0.13867 0.261511,-1.05833 -0.24986,-0.43709 -0.381304,-1.48513 -0.387499,-3.08965 -0.0089,-2.30287 -0.04536,-2.4565 -0.706516,-2.97656 -0.383427,-0.30161 -0.845098,-0.54837 -1.025936,-0.54837 -0.799509,0 -0.975567,-0.78529 -0.939429,-4.19021 l 0.0362,-3.410824 -1.729556,-1.669961 c -1.704307,-1.645582 -1.955095,-2.133735 -1.481064,-2.882867 0.188729,-0.298258 0.699594,0.06697 2.377198,1.699528 l 2.136809,2.079427 v 3.239767 c 0,3.43565 0.10652,4.0768 0.677317,4.0768 0.789364,0 1.693078,0.64652 1.955347,1.39887 0.152764,0.43822 0.277753,1.89663 0.277753,3.24092 0,2.31975 0.04377,2.50902 0.859896,3.71836 0.609799,0.90361 1.109992,1.33775 1.719791,1.49268 0.584545,0.14851 0.859896,0.37643 0.859896,0.71176 0,0.44412 -0.556753,0.87162 -1.013827,0.77846 -0.09724,-0.0198 -0.446002,-0.0878 -0.77503,-0.15107 z m 79.962891,-0.0942 c -0.26841,-0.43429 -0.17858,-2.94288 0.11593,-3.23739 0.48481,-0.48481 0.82046,0.13602 0.82046,1.51756 0,1.42945 -0.52262,2.38933 -0.93639,1.71983 z m -65.474034,-0.10274 c 0,-0.39846 4.039913,-2.01107 5.789972,-2.31117 1.90841,-0.32726 3.146493,-0.25367 10.170747,0.60454 2.251705,0.2751 3.065405,0.25309 6.085415,-0.16462 4.98817,-0.68995 8.01395,-0.62073 10.46625,0.23944 1.99768,0.7007 3.91915,1.74379 3.20637,1.74061 -0.21828,-9.8e-4 -1.28984,-0.24396 -2.38125,-0.53996 -2.85775,-0.77506 -6.14825,-0.90841 -9.96687,-0.40392 -3.92623,0.5187 -6.245345,0.5254 -9.876885,0.0285 -4.004085,-0.54785 -7.912817,-0.48628 -10.186457,0.16045 -2.445389,0.69558 -3.307292,0.86396 -3.307292,0.64611 z m 69.070164,-1.66646 c -0.15155,-0.5457 -0.2762,-1.50393 -0.27702,-2.12941 -0.001,-1.10665 0.0911,-1.22935 3.44091,-4.56406 3.19476,-3.18034 3.51426,-3.42684 4.44177,-3.42684 0.91572,0 1.17042,-0.18686 3.04194,-2.23177 2.10124,-2.29591 2.85952,-2.79247 3.47908,-2.27828 0.62788,0.5211 0.16354,1.20425 -2.49992,3.67798 -2.26391,2.10262 -2.72775,2.41957 -3.54099,2.41957 -0.83552,0 -1.26306,0.31973 -3.98859,2.98281 -2.99133,2.92278 -3.05283,3.00663 -3.05637,4.16718 -0.007,2.37292 -0.56138,3.10915 -1.04081,1.38282 z m -17.03544,-2.62378 c -0.097,-0.097 -0.17639,-2.74787 -0.17639,-5.8908 v -5.7144 l 3.44588,-3.435771 c 2.50272,-2.495373 3.51489,-3.690727 3.69803,-4.36728 0.15499,-0.57258 0.53762,-1.100149 0.99302,-1.369156 1.50654,-0.889936 1.66036,-1.260024 1.86145,-4.478475 0.15094,-2.415962 0.26645,-3.010438 0.58496,-3.010438 0.32979,0 0.40928,0.609951 0.47029,3.608381 l 0.0734,3.608381 -0.86717,0.681436 c -1.57122,1.234693 -1.79321,1.488709 -1.79321,2.051914 0,0.362695 -1.20149,1.753085 -3.43958,3.980354 l -3.43959,3.422954 v 5.22714 c 0,3.71278 -0.092,5.31913 -0.3175,5.54465 -0.35129,0.35129 -0.82261,0.41211 -1.09361,0.14111 z m -64.832227,-0.80306 c -0.09189,-0.0919 -0.16708,-2.38372 -0.16708,-5.09296 v -4.92588 l -1.455208,-1.43713 c -1.432793,-1.414993 -1.455209,-1.460866 -1.455209,-2.978 0,-1.448396 -0.06351,-1.603127 -1.058333,-2.578248 -1.074462,-1.053188 -1.266976,-1.537608 -0.797599,-2.006985 0.157123,-0.157123 0.288549,-3.568938 0.330729,-8.585729 l 0.07,-8.324995 h 0.661458 0.661459 v 8.867853 8.867853 l 0.727604,0.786735 c 0.609565,0.659103 0.727604,1.022008 0.727604,2.236975 0,1.410929 0.04124,1.4919 1.521354,2.987141 l 1.521354,1.5369 0.08993,4.25563 c 0.04946,2.34059 0.01457,4.65732 -0.07753,5.14828 -0.159361,0.84947 -0.943976,1.59911 -1.300528,1.24256 z m 77.989887,-2.85569 c 0.0319,-0.21755 1.18225,-1.55728 2.55627,-2.97718 1.37403,-1.41989 2.77194,-2.91638 3.10649,-3.32552 0.69698,-0.8524 1.46935,-0.84583 1.59207,0.0135 0.0564,0.39496 -0.2454,0.91742 -0.92604,1.6031 -0.55534,0.55945 -1.76437,1.81957 -2.68674,2.80026 -1.56107,1.65978 -2.47215,2.28137 -3.34387,2.28137 -0.19593,0 -0.33011,-0.178 -0.29818,-0.39556 z m -19.16375,-0.13975 c -0.32059,-0.19868 -0.39336,-1.26492 -0.41885,-6.13643 -0.0421,-8.040227 -0.10995,-7.689366 1.7465,-9.027225 1.11232,-0.801593 1.60926,-1.360725 1.82261,-2.05069 0.33616,-1.087135 1.46495,-1.824344 1.73116,-1.130612 0.33866,0.88254 0.0955,1.396802 -1.27169,2.689869 -2.73047,2.582358 -2.54253,1.913399 -2.54253,9.049928 0,6.49955 -0.11264,7.19673 -1.0672,6.60516 z m -54.848078,-0.69942 c -0.09701,-0.097 -0.176015,-1.79365 -0.175558,-3.77031 l 8.3e-4,-3.59392 -1.854201,-1.719795 -1.854201,-1.719792 -0.06486,-8.863541 -0.06486,-8.863542 -0.609568,-0.08642 c -0.77087,-0.109283 -1.294775,-1.300208 -0.790368,-1.796642 0.49121,-0.483447 6.400267,-2.642205 8.303523,-3.03353 1.898234,-0.390293 2.561175,-0.224471 2.441532,0.6107 -0.07097,0.49537 -0.556749,0.754767 -2.995119,1.599325 -1.60073,0.55443 -3.327136,1.211626 -3.836459,1.460434 l -0.926041,0.452379 -0.07648,8.334375 c -0.04206,4.583906 -0.01156,8.691563 0.06779,9.128125 0.101214,0.556845 0.615891,1.18225 1.724426,2.095418 1.009412,0.831516 1.687494,1.626926 1.87734,2.202166 0.447289,1.3553 0.224619,7.15929 -0.287077,7.48278 -0.473789,0.29952 -0.646852,0.31559 -0.880653,0.0818 z M 34.56132,54.819256 c -1.248847,-0.95356 -1.526717,-1.38434 -1.526717,-2.36681 0,-0.69078 1.277506,-2.01224 1.945306,-2.01224 0.65734,0 3.081777,2.50387 3.081777,3.18275 0,0.63421 -1.346785,2.10892 -1.925975,2.10892 -0.208548,0 -0.917025,-0.41068 -1.574391,-0.91262 z m 1.648283,-1.19474 c 0,-0.56013 -0.903923,-1.19431 -1.328385,-0.93197 -0.410142,0.25348 -0.3021,0.87133 0.203906,1.16605 0.71926,0.41893 1.124479,0.33458 1.124479,-0.23408 z m 87.537357,-4.42268 c -0.0219,-0.410304 -0.0175,-2.234288 0.01,-4.053298 l 0.0494,-3.307292 1.25638,-1.190625 c 0.691,-0.654844 2.71073,-2.53982 4.48828,-4.188837 l 3.23191,-2.998211 V 30.862371 28.26117 l -0.73797,0.278555 c -0.62101,0.234403 -1.11377,0.130382 -3.10886,-0.656268 -4.25334,-1.677068 -5.41358,-1.870446 -5.41358,-0.902286 0,0.821122 -3.52279,4.270665 -4.12526,4.039478 -0.22876,-0.08779 -0.46573,-0.159611 -0.52659,-0.159611 -0.45819,0 0.16446,-0.905116 1.74143,-2.531457 1.01865,-1.050534 1.85208,-2.019423 1.85208,-2.153087 0,-0.133664 -0.35718,-0.507106 -0.79375,-0.82987 -0.96123,-0.710672 -1.0732,-1.62965 -0.19843,-1.628669 0.88658,9.94e-4 5.00319,1.151527 7.96906,2.22724 1.43619,0.520901 2.70665,0.947093 2.82325,0.947093 0.1166,0 0.28864,-0.348961 0.38232,-0.775468 0.20689,-0.941961 0.71466,-1.407245 1.29339,-1.185165 0.37388,0.14347 0.43041,0.749467 0.43041,4.613612 v 4.448449 l -4.56406,4.283122 -4.56406,4.283122 -0.13229,3.609393 c -0.12812,3.495583 -0.15107,3.612063 -0.72761,3.693943 -0.4895,0.0695 -0.60237,-0.0481 -0.63504,-0.66146 z M 76.691583,47.860497 c -0.220876,-0.460763 -0.393898,-2.211028 -0.471784,-4.772504 l -0.122992,-4.044899 -0.859023,-0.358923 c -1.687348,-0.705018 -2.242818,-2.479064 -1.109566,-3.543699 0.840656,-0.789755 1.968423,-0.736607 2.878886,0.135672 l 0.742082,0.710959 v 5.881985 c 0,3.235091 -0.07227,6.070315 -0.160599,6.300498 -0.23342,0.608283 -0.501529,0.515898 -0.897004,-0.309089 z M 41.623205,45.904473 c -1.390455,-1.281676 -1.640421,-1.991545 -1.081724,-3.071947 0.586171,-1.133529 3.4149,-3.506204 4.170716,-3.498303 0.877231,0.0092 3.403656,2.346862 3.403656,3.149391 0,0.822104 -0.797699,2.072206 -2.003481,3.139724 -2.000601,1.771198 -2.817163,1.822335 -4.489167,0.281135 z m 3.104733,-1.731498 c 0.850785,-0.815105 0.924475,-1.294789 0.304199,-1.980186 -0.583558,-0.644825 -1.275362,-0.610754 -1.933061,0.0952 -0.681728,0.73175 -0.685021,1.392062 -0.01031,2.066777 0.677528,0.677528 0.7507,0.669412 1.639168,-0.181793 z m 110.233592,2.106676 c -1.16359,-0.906957 -2.50591,-2.64262 -2.72659,-3.525589 -0.14305,-0.572332 0.052,-0.883351 1.28614,-2.050521 0.82818,-0.78326 1.70059,-1.375857 2.0255,-1.375857 0.34478,0 1.29377,0.698038 2.39709,1.7632 2.34827,2.267068 2.43398,2.955158 0.5884,4.723544 -1.46627,1.404928 -2.23622,1.505249 -3.57054,0.465223 z m 2.2499,-2.184449 c 0.38221,-0.64702 0.40911,-0.896594 0.14973,-1.389062 -0.39831,-0.756254 -0.74475,-0.98804 -1.48443,-0.993154 -1.17788,-0.0081 -1.47375,1.532126 -0.48436,2.521517 0.8501,0.850098 1.25283,0.819258 1.81906,-0.139301 z m -26.09722,1.817662 c -0.37734,-0.219514 -0.41222,-0.356785 -0.16604,-0.653412 0.1714,-0.206535 0.45613,-0.375518 0.63272,-0.375518 0.40926,0 2.03417,-1.79251 3.47774,-3.836458 0.61666,-0.873125 1.54743,-1.997809 2.06838,-2.499298 l 0.94718,-0.911799 v -4.942784 c 0,-4.070807 0.07,-5.00089 0.39688,-5.272161 0.31663,-0.26278 0.47712,-0.26278 0.79375,0 0.32815,0.272347 0.39687,1.230275 0.39687,5.532448 v 5.20307 l -1.34753,1.31297 c -0.74114,0.722134 -1.80285,1.967814 -2.35935,2.768179 -1.4721,2.117176 -3.27675,3.96996 -3.85781,3.960704 -0.27781,-0.0044 -0.72006,-0.133098 -0.98279,-0.285941 z M 48.318496,41.823383 c -0.08257,-0.08257 -0.03235,-0.576725 0.111614,-1.098113 0.296193,-1.072719 -0.07635,-2.080166 -0.861344,-2.329315 -0.754384,-0.239432 -0.844832,-0.945091 -0.208022,-1.622944 0.82899,-0.882419 1.375517,-0.777515 2.734838,0.524944 1.521574,1.457924 1.528001,2.03121 0.03946,3.519751 -1.114373,1.114374 -1.496368,1.325854 -1.816546,1.005677 z M 150.10087,40.840654 c -1.56145,-1.561443 -1.55279,-2.197098 0.0491,-3.60715 0.67534,-0.594451 1.36896,-1.08082 1.54138,-1.08082 0.38792,0 1.46408,1.117551 1.46408,1.520391 0,0.162613 -0.3716,0.56026 -0.82577,0.88366 -0.77721,0.553421 -0.81689,0.662963 -0.6748,1.862728 0.0867,0.731719 0.0389,1.343998 -0.11213,1.43734 -0.14471,0.08944 -0.79355,-0.367831 -1.44187,-1.016149 z m -31.95862,-0.366442 c -0.46122,-0.461218 -0.0466,-1.220385 1.37275,-2.513391 0.85203,-0.776194 3.1089,-2.869777 5.01527,-4.652407 3.30543,-3.090879 4.54809,-3.862773 4.54809,-2.825102 0,0.228824 -1.51805,1.876749 -3.37344,3.662055 -7.05094,6.7846 -7.08141,6.810104 -7.56267,6.328845 z m -57.994587,-0.93637 c -0.07516,-0.195868 -0.104395,-2.853359 -0.06496,-5.905536 l 0.07169,-5.549413 h 0.661458 0.661458 v 5.820833 5.820833 l -0.596495,0.0847 c -0.328073,0.04659 -0.657991,-0.07555 -0.733153,-0.27142 z m 53.626297,-3.184976 c -0.47582,-0.475816 -0.37055,-0.833104 0.48773,-1.65539 l 0.79375,-0.760461 0.004,-7.292686 c 0.002,-4.010978 0.10579,-7.453229 0.23014,-7.649449 0.12435,-0.196219 0.44995,-0.313694 0.72356,-0.261055 0.47152,0.09072 0.50112,0.50142 0.56767,7.876005 0.0701,7.764522 0.069,7.781601 -0.52916,8.42286 -1.08829,1.166691 -1.93847,1.659453 -2.27774,1.320176 z M 54.177508,35.462595 c -0.300132,-0.361637 -0.277016,-0.481169 0.154003,-0.796338 0.436453,-0.319142 0.560972,-0.317002 0.893326,0.01535 0.317002,0.317002 0.325205,0.45966 0.04579,0.796338 -0.430986,0.519307 -0.651964,0.516203 -1.093115,-0.01535 z m 32.654747,0.09478 c -0.139536,-0.190587 -0.198569,-3.826425 -0.139313,-8.580388 0.0912,-7.316907 0.151521,-8.268345 0.533493,-8.414921 1.002827,-0.384821 1.10479,0.426199 1.093448,8.697372 -0.0072,5.272795 -0.106731,8.056816 -0.296106,8.285 -0.360854,0.434802 -0.878541,0.440422 -1.191522,0.01294 z M 81.18877,27.978911 c 0,-6.571509 0.04715,-7.39812 0.43041,-7.545189 1.07256,-0.41158 1.15709,0.119014 1.15709,7.263056 0,3.753822 -0.07227,7.013462 -0.1606,7.243645 -0.08833,0.230183 -0.445517,0.418514 -0.79375,0.418514 h -0.63315 z m 28.61554,4.668893 c -0.21489,-0.214892 -0.30512,-2.353209 -0.30512,-7.231262 0,-5.807436 0.0636,-6.978894 0.39351,-7.252725 0.21642,-0.179619 0.57361,-0.257466 0.79375,-0.172992 0.34359,0.131849 0.40024,1.164577 0.40024,7.296333 0,6.674454 -0.032,7.15989 -0.48863,7.404253 -0.33619,0.179923 -0.58383,0.166318 -0.79375,-0.04361 z M 91.693055,32.545859 c -0.102045,-0.102045 -0.185535,-3.08646 -0.185535,-6.632034 0,-5.666766 0.05123,-6.466159 0.423578,-6.609041 0.232967,-0.0894 0.529989,0.0036 0.660048,0.206742 0.130059,0.203106 0.20734,3.225212 0.171735,6.715792 -0.05596,5.486149 -0.120288,6.35719 -0.474514,6.425293 -0.225377,0.04333 -0.493268,-0.0047 -0.595312,-0.106752 z m 7.75196,-6.000793 v -3.028183 l -0.7991,-0.331001 c -1.02041,-0.422667 -2.02021,-1.609989 -2.3444,-2.784123 -0.77392,-2.802891 2.37945,-5.809153 4.961685,-4.730226 3.50107,1.462837 3.91772,5.113582 0.82136,7.196706 l -0.91974,0.618773 -0.1323,2.959398 -0.13229,2.959399 -0.7276,0.08372 -0.727615,0.08372 z m 1.406465,-5.513241 c 0.74613,-0.392734 0.96575,-0.738214 0.97074,-1.527057 0.005,-0.863086 -0.7193,-1.609233 -1.55831,-1.604282 -0.834665,0.0049 -1.175315,0.215151 -1.573035,0.970742 -0.43474,0.825942 -0.38556,1.08456 0.34524,1.815358 0.7308,0.730798 0.989425,0.779981 1.815365,0.345239 z"
       id="path1" /></g></svg>
